<svg width="15" height="15" viewBox="0 0 15 15" fill="none" xmlns="http://www.w3.org/2000/svg">
<path d="M6.09177 1.55904C6.22976 1.40493 6.3987 1.28164 6.58755 1.19724C6.77641 1.11284 6.98095 1.06921 7.18781 1.06921C7.39467 1.06921 7.5992 1.11284 7.78806 1.19724C7.97692 1.28164 8.14585 1.40493 8.28384 1.55904L8.79876 2.13429C8.94592 2.2987 9.12818 2.4279 9.33204 2.51232C9.5359 2.59675 9.75614 2.63423 9.97645 2.62201L10.7488 2.57934C10.9554 2.56795 11.1621 2.60027 11.3553 2.67418C11.5486 2.74809 11.7241 2.86193 11.8703 3.00827C12.0166 3.15461 12.1304 3.33016 12.2042 3.52345C12.278 3.71674 12.3102 3.92343 12.2987 4.13002L12.2561 4.90168C12.2439 5.12188 12.2815 5.34198 12.3659 5.54571C12.4503 5.74944 12.5794 5.93158 12.7438 6.07867L13.319 6.5936C13.4732 6.7316 13.5966 6.90059 13.6811 7.08952C13.7655 7.27845 13.8092 7.48308 13.8092 7.69004C13.8092 7.897 13.7655 8.10163 13.6811 8.29056C13.5966 8.4795 13.4732 8.64848 13.319 8.78648L12.7438 9.30141C12.5793 9.44858 12.4502 9.63084 12.3657 9.83471C12.2813 10.0386 12.2438 10.2588 12.2561 10.4791L12.2987 11.2515C12.3101 11.4581 12.2778 11.6648 12.2039 11.8581C12.13 12.0513 12.0161 12.2268 11.8698 12.3731C11.7235 12.5193 11.5479 12.6331 11.3546 12.7069C11.1613 12.7807 10.9547 12.813 10.7481 12.8015L9.97645 12.7588C9.75626 12.7467 9.53616 12.7842 9.33244 12.8687C9.12872 12.9531 8.94658 13.0822 8.79949 13.2465L8.28458 13.8218C8.14659 13.976 7.97761 14.0994 7.78868 14.1839C7.59975 14.2684 7.39513 14.312 7.18817 14.312C6.98122 14.312 6.7766 14.2684 6.58767 14.1839C6.39874 14.0994 6.22976 13.976 6.09177 13.8218L5.57686 13.2465C5.42969 13.0821 5.24743 12.9529 5.04357 12.8685C4.83971 12.7841 4.61948 12.7466 4.39917 12.7588L3.62679 12.8015C3.42021 12.8129 3.21354 12.7806 3.02029 12.7066C2.82704 12.6327 2.65155 12.5189 2.50528 12.3725C2.35902 12.2262 2.24526 12.0507 2.17144 11.8574C2.09763 11.6641 2.06541 11.4574 2.0769 11.2508L2.11956 10.4791C2.13168 10.2589 2.09414 10.0388 2.00972 9.83511C1.9253 9.63138 1.79617 9.44924 1.63186 9.30215L1.05663 8.78721C0.902397 8.64922 0.779015 8.48023 0.694542 8.2913C0.610069 8.10237 0.566406 7.89774 0.566406 7.69078C0.566406 7.48382 0.610069 7.27919 0.694542 7.09026C0.779015 6.90132 0.902397 6.73234 1.05663 6.59434L1.63186 6.07941C1.79627 5.93224 1.92546 5.74997 2.00988 5.54611C2.0943 5.34224 2.13179 5.122 2.11956 4.90168L2.0769 4.12929C2.06562 3.92275 2.09801 3.71616 2.17197 3.52299C2.24592 3.32982 2.35978 3.15442 2.5061 3.00823C2.65243 2.86204 2.82793 2.74835 3.02116 2.67457C3.2144 2.6008 3.42101 2.5686 3.62753 2.58008L4.39917 2.62274C4.61936 2.63486 4.83945 2.59732 5.04317 2.5129C5.2469 2.42848 5.42903 2.29934 5.57612 2.13503L6.09104 1.55978L6.09177 1.55904Z" stroke="white" stroke-width="0.988911"/>
<path d="M5.67578 6.25391H5.68184V6.25965H5.67578V6.25391ZM8.70289 9.12769H8.70895V9.13344H8.70289V9.12769Z" stroke="white" stroke-width="0.988911" stroke-linejoin="round"/>
<path d="M9.00363 5.96631L5.37109 9.41485" stroke="white" stroke-width="0.988911" stroke-linecap="round" stroke-linejoin="round"/>
</svg>
