<svg width="25" height="23" viewBox="0 0 25 23" fill="none" xmlns="http://www.w3.org/2000/svg">
<rect x="0.90625" width="23.1576" height="22.4468" rx="11.2234" fill="#0077FF" fill-opacity="0.1"/>
<path fill-rule="evenodd" clip-rule="evenodd" d="M14.0877 5.8907H10.9479C10.8483 6.32975 10.6081 6.73273 10.257 7.04962C9.90584 7.36651 9.45933 7.58334 8.97286 7.67321C8.97266 7.80524 8.97266 7.93728 8.97286 8.06932C9.45933 8.15918 9.90584 8.37602 10.257 8.6929C10.6081 9.00979 10.8483 9.41277 10.9479 9.85182H14.0877C14.1873 9.41277 14.4276 9.00979 14.7787 8.6929C15.1298 8.37602 15.5763 8.15918 16.0628 8.06932C16.0629 7.93728 16.0629 7.80524 16.0628 7.67321C15.5763 7.58334 15.1298 7.36651 14.7787 7.04962C14.4276 6.73273 14.1873 6.32975 14.0877 5.8907ZM14.4962 4.97843C14.3106 4.9766 14.1134 4.9766 13.9034 4.9766H11.1322C10.9229 4.9766 10.7251 4.9766 10.5401 4.97843C10.5032 4.97543 10.4661 4.97605 10.4293 4.98026C10.1241 4.98513 9.85336 4.99671 9.61838 5.02535C9.19433 5.07654 8.81148 5.18989 8.50425 5.46717C8.19635 5.74506 8.07075 6.09059 8.01403 6.47268C7.9823 6.68537 7.96947 6.92974 7.96407 7.20518C7.95944 7.23813 7.95876 7.27144 7.96204 7.30452C7.96001 7.4721 7.96001 7.65066 7.96001 7.83957V7.90295C7.96001 8.09187 7.96001 8.27042 7.96204 8.43801C7.95877 8.47109 7.95945 8.50439 7.96407 8.53734C7.96947 8.8134 7.9823 9.05716 8.01403 9.26923C8.07075 9.65193 8.19635 9.99747 8.50425 10.2747C8.81148 10.5526 9.19433 10.666 9.61838 10.7172C9.85336 10.7458 10.1241 10.7574 10.4293 10.7623C10.4661 10.7665 10.5032 10.7672 10.5401 10.7641C10.7251 10.7659 10.9229 10.7659 11.1322 10.7659H13.9034C14.1127 10.7659 14.3106 10.7659 14.4962 10.7641C14.5329 10.7671 14.5698 10.7665 14.6063 10.7623C14.9122 10.7574 15.1829 10.7458 15.4173 10.7172C15.8413 10.666 16.2242 10.5526 16.5314 10.2747C16.8393 9.99747 16.9649 9.65193 17.0216 9.26923C17.0536 9.02632 17.0703 8.78196 17.0716 8.53734C17.0761 8.50439 17.0768 8.47109 17.0736 8.43801C17.0756 8.27042 17.0756 8.09187 17.0756 7.90295V7.83957C17.0756 7.65066 17.0756 7.4721 17.0736 7.30452C17.0769 7.27144 17.0763 7.23813 17.0716 7.20518C17.0702 6.96057 17.0535 6.71622 17.0216 6.47329C16.9649 6.09059 16.8393 5.74506 16.5321 5.46778C16.2242 5.18989 15.8413 5.07654 15.4179 5.02535C15.1485 4.99654 14.8776 4.98149 14.6063 4.98026C14.5698 4.97607 14.5329 4.97546 14.4962 4.97843ZM15.1472 5.91752C15.2236 6.09984 15.3421 6.2654 15.4949 6.40325C15.6476 6.54109 15.8311 6.64805 16.0331 6.71705C16.0288 6.67634 16.0236 6.6357 16.0175 6.59517C15.9763 6.31363 15.9034 6.19297 15.815 6.11375C15.7272 6.03452 15.5942 5.96932 15.2829 5.93093C15.238 5.92563 15.1929 5.92116 15.1478 5.91752H15.1472ZM16.0331 9.02547C15.8311 9.09447 15.6476 9.20144 15.4949 9.33928C15.3421 9.47712 15.2236 9.64269 15.1472 9.825C15.1944 9.82135 15.2397 9.81647 15.2822 9.8116C15.5942 9.77321 15.7279 9.708 15.8156 9.62878C15.9034 9.54955 15.9763 9.42889 16.0182 9.14735C16.0236 9.10896 16.029 9.06813 16.0331 9.02547ZM9.88847 9.825C9.81202 9.64269 9.6935 9.47712 9.54077 9.33928C9.38803 9.20144 9.20458 9.09447 9.00257 9.02547C9.0073 9.06813 9.01202 9.10896 9.0181 9.14735C9.05996 9.42889 9.13221 9.54955 9.22067 9.62878C9.30845 9.708 9.44147 9.77321 9.75275 9.8116C9.79596 9.81647 9.8412 9.82135 9.88847 9.825ZM9.00257 6.71705C9.20458 6.64805 9.38803 6.54109 9.54077 6.40325C9.6935 6.2654 9.81202 6.09984 9.88847 5.91752C9.8412 5.92117 9.79596 5.92605 9.75343 5.93153C9.44147 5.96932 9.30777 6.03452 9.21999 6.11436C9.13221 6.19358 9.05996 6.31363 9.01742 6.59456L9.00257 6.71705ZM12.5178 7.71891C12.473 7.71891 12.4301 7.73496 12.3985 7.76353C12.3668 7.7921 12.349 7.83086 12.349 7.87126C12.349 7.91167 12.3668 7.95042 12.3985 7.97899C12.4301 8.00756 12.473 8.02361 12.5178 8.02361C12.5626 8.02361 12.6055 8.00756 12.6372 7.97899C12.6688 7.95042 12.6866 7.91167 12.6866 7.87126C12.6866 7.83086 12.6688 7.7921 12.6372 7.76353C12.6055 7.73496 12.5626 7.71891 12.5178 7.71891ZM11.3362 7.87126C11.3362 7.58842 11.4607 7.31716 11.6823 7.11717C11.9039 6.91717 12.2044 6.80481 12.5178 6.80481C12.8312 6.80481 13.1318 6.91717 13.3534 7.11717C13.575 7.31716 13.6995 7.58842 13.6995 7.87126C13.6995 8.1541 13.575 8.42536 13.3534 8.62536C13.1318 8.82536 12.8312 8.93772 12.5178 8.93772C12.2044 8.93772 11.9039 8.82536 11.6823 8.62536C11.4607 8.42536 11.3362 8.1541 11.3362 7.87126ZM10.2788 12.4101C11.5387 12.1901 12.8872 12.2395 13.979 12.8269C14.1316 12.9092 14.2761 13.0122 14.401 13.1389C14.6549 13.3967 14.7859 13.716 14.792 14.0366C14.921 13.9616 15.0506 13.8781 15.1816 13.7886L16.4024 12.9567C16.7081 12.754 17.0775 12.6447 17.4568 12.6447C17.8361 12.6447 18.2055 12.754 18.5112 12.9567C19.0756 13.3406 19.3012 14.0311 18.8967 14.6161C18.6097 15.0311 18.1769 15.6058 17.7373 15.9739C17.2917 16.3456 16.659 16.6588 16.1803 16.8673C15.5982 17.1208 14.9703 17.2609 14.3592 17.3499C13.11 17.5327 11.8109 17.5047 10.5765 17.2749C9.94 17.1567 9.29186 17.0969 8.642 17.0964H7.11598C6.98167 17.0964 6.85286 17.0482 6.75788 16.9625C6.66291 16.8768 6.60956 16.7606 6.60956 16.6393C6.60956 16.5181 6.66291 16.4019 6.75788 16.3162C6.85286 16.2304 6.98167 16.1823 7.11598 16.1823H8.642C9.35909 16.1823 10.0836 16.2499 10.7811 16.3797C11.9062 16.5881 13.0637 16.611 14.1978 16.4474C14.7569 16.3657 15.2795 16.2444 15.74 16.044C16.2012 15.8429 16.7198 15.5784 17.0486 15.3035C17.3815 15.025 17.7535 14.543 18.0378 14.1323C18.1236 14.0079 18.1114 13.8294 17.9014 13.6862C17.6516 13.5155 17.262 13.5155 17.0128 13.6862L15.7927 14.518C15.3052 14.8501 14.7056 15.2054 13.9621 15.3127C13.8843 15.3238 13.8061 15.3336 13.7278 15.3419C13.2547 15.3912 12.7772 15.3953 12.3031 15.3541C12.2357 15.3499 12.1699 15.3336 12.1096 15.3061C12.0493 15.2786 11.9958 15.2405 11.952 15.194C11.9083 15.1476 11.8753 15.0937 11.855 15.0355C11.8347 14.9774 11.8275 14.9162 11.8338 14.8555C11.8401 14.7948 11.8598 14.7358 11.8917 14.6821C11.9237 14.6284 11.9672 14.581 12.0197 14.5427C12.0722 14.5043 12.1327 14.4759 12.1977 14.459C12.2626 14.4421 12.3305 14.4371 12.3976 14.4443C12.7722 14.4771 13.1495 14.4765 13.5239 14.4424L13.5442 14.4406C13.6072 14.4053 13.6607 14.3579 13.7009 14.3016C13.7411 14.2454 13.767 14.1818 13.7767 14.1155C13.7864 14.0492 13.7796 13.9817 13.7569 13.918C13.7342 13.8543 13.6962 13.7959 13.6455 13.7471C13.5916 13.6937 13.529 13.648 13.4598 13.6118C12.6623 13.1822 11.5968 13.1109 10.4712 13.3071C9.37175 13.5067 8.32948 13.9081 7.40903 14.4863C7.35476 14.5211 7.29344 14.5458 7.22858 14.5591C7.16372 14.5725 7.09657 14.5742 7.03099 14.5641C6.9654 14.554 6.90266 14.5324 6.84634 14.5004C6.79002 14.4685 6.74122 14.4268 6.70274 14.3778C6.66425 14.3289 6.63683 14.2735 6.62205 14.215C6.60726 14.1565 6.60539 14.0959 6.61655 14.0367C6.62772 13.9775 6.65168 13.9208 6.68709 13.87C6.7225 13.8192 6.76866 13.7751 6.82293 13.7404C7.86119 13.0871 9.03767 12.6342 10.2788 12.4101Z" fill="white"/>
</svg>
