<svg width="17" height="17" viewBox="0 0 20 19" fill="none" xmlns="http://www.w3.org/2000/svg">
<path d="M7.44483 12.7802L4.70416 10.0396C4.6325 9.96702 4.54714 9.90942 4.45305 9.87012C4.35896 9.83081 4.258 9.81057 4.15603 9.81057C4.05406 9.81057 3.9531 9.83081 3.85901 9.87012C3.76492 9.90942 3.67957 9.96702 3.6079 10.0396C3.53536 10.1112 3.47776 10.1966 3.43846 10.2907C3.39915 10.3848 3.37891 10.4857 3.37891 10.5877C3.37891 10.6897 3.39915 10.7906 3.43846 10.8847C3.47776 10.9788 3.53536 11.0642 3.6079 11.1358L6.88886 14.4168C7.19425 14.7222 7.68757 14.7222 7.99296 14.4168L16.2932 6.12433C16.3658 6.05266 16.4234 5.96731 16.4627 5.87322C16.502 5.77913 16.5222 5.67817 16.5222 5.5762C16.5222 5.47423 16.502 5.37327 16.4627 5.27918C16.4234 5.18509 16.3658 5.09973 16.2932 5.02807C16.2216 4.95552 16.1362 4.89793 16.0421 4.85862C15.948 4.81931 15.8471 4.79907 15.7451 4.79907C15.6431 4.79907 15.5422 4.81931 15.4481 4.85862C15.354 4.89793 15.2686 4.95552 15.197 5.02807L7.44483 12.7802Z" fill="white"/>
</svg>
