<svg width="14" height="14" viewBox="0 0 14 14" fill="none" xmlns="http://www.w3.org/2000/svg">
<path d="M12.5646 12.6964L9.81582 9.94766M9.81582 9.94766C10.286 9.47747 10.659 8.91927 10.9134 8.30494C11.1679 7.6906 11.2989 7.03217 11.2989 6.36722C11.2989 5.70227 11.1679 5.04383 10.9135 4.4295C10.659 3.81516 10.286 3.25697 9.81582 2.78678C9.34563 2.31659 8.78743 1.94361 8.1731 1.68915C7.55877 1.43468 6.90033 1.30371 6.23538 1.30371C5.57043 1.30371 4.91199 1.43468 4.29766 1.68915C3.68333 1.94361 3.12513 2.31659 2.65494 2.78678C1.70535 3.73637 1.17187 5.02429 1.17188 6.36722C1.17188 7.71014 1.70535 8.99806 2.65494 9.94766C3.60453 10.8972 4.89246 11.4307 6.23538 11.4307C7.57831 11.4307 8.86623 10.8972 9.81582 9.94766Z" stroke="white" stroke-width="1.26584" stroke-linecap="round" stroke-linejoin="round"/>
</svg>
