<svg width="91" height="56" viewBox="0 0 91 56" fill="none" xmlns="http://www.w3.org/2000/svg">
<g clip-path="url(#clip0_2587_79410)">
<path fill-rule="evenodd" clip-rule="evenodd" d="M35.0092 -3.71357C31.2279 -6.79553 30.6721 -12.3788 33.7675 -16.1766C34.5002 -17.08 35.4037 -17.8302 36.4264 -18.3845C37.4491 -18.9387 38.5709 -19.2861 39.7278 -19.4068C40.8847 -19.5275 42.0541 -19.4191 43.1692 -19.0879C44.2842 -18.7566 45.3231 -18.209 46.2265 -17.4763C50.0098 -14.3926 50.5656 -8.80931 47.4685 -5.00951C46.727 -4.09736 45.8115 -3.3417 44.7753 -2.78646C43.7391 -2.23122 42.6029 -1.88747 41.4327 -1.77519L40.1549 13.0362C41.6925 13.848 42.9568 15.0949 43.7896 16.6212L59.1657 11.7718C59.1651 9.72404 59.873 7.73911 61.1692 6.15383C61.9022 5.25064 62.8059 4.50067 63.8288 3.94674C64.8516 3.39281 65.9735 3.04577 67.1305 2.92543C68.2875 2.80509 69.4568 2.91381 70.5717 3.24538C71.6867 3.57695 72.7254 4.12488 73.6286 4.85788C77.4099 7.93984 77.9656 13.5232 74.8686 17.323C73.3885 19.1467 71.2447 20.3079 68.9086 20.5512C66.5725 20.7946 64.2354 20.1001 62.4113 18.6206C61.4495 17.8394 60.6647 16.8627 60.1087 15.7554L44.8592 20.5711C44.9275 22.7152 44.2166 24.8114 42.8581 26.4715C42.1253 27.375 41.2216 28.1253 40.1988 28.6794C39.1759 29.2335 38.0539 29.5807 36.8969 29.701C35.7398 29.8214 34.5704 29.7126 33.4554 29.3808C32.3404 29.049 31.3017 28.5008 30.3987 27.7675C29.4987 27.0308 28.7526 26.124 28.2031 25.0989C27.6536 24.0738 27.3114 22.9505 27.1961 21.7932C27.0808 20.6358 27.1946 19.4671 27.5311 18.3538C27.8675 17.2404 28.42 16.2042 29.157 15.3045C30.9392 13.1179 33.5368 11.9996 36.1419 12.0262L37.3812 -2.33093C36.523 -2.66478 35.7226 -3.13134 35.0092 -3.71357Z" fill="white" fill-opacity="0.3"/>
</g>
<defs>
<clipPath id="clip0_2587_79410">
<rect width="63.6285" height="63.6285" fill="white" transform="translate(0.925781 15.7197) rotate(-50.8182)"/>
</clipPath>
</defs>
</svg>
