<svg width="60" height="60" viewBox="0 0 60 60" fill="none" xmlns="http://www.w3.org/2000/svg">
<g clip-path="url(#clip0_2587_79434)">
<circle cx="30" cy="30" r="29.75" stroke="#739AC6" stroke-opacity="0.3" stroke-width="0.5"/>
<path d="M26.9222 20.2656C26.8931 20.1536 26.8208 20.0578 26.7212 19.9989C26.6216 19.9401 26.5027 19.9231 26.3906 19.9517C24.8417 20.3551 23.4285 21.1645 22.2968 22.2964C21.1651 23.4283 20.356 24.8416 19.9528 26.3906C19.9242 26.5026 19.941 26.6213 19.9996 26.7209C20.0582 26.8205 20.1538 26.8929 20.2656 26.9222C20.3012 26.9323 20.338 26.9375 20.375 26.9375C20.4717 26.9372 20.5657 26.9048 20.642 26.8454C20.7184 26.7861 20.773 26.703 20.7972 26.6094C21.1624 25.2116 21.8933 23.9364 22.9149 22.9149C23.9364 21.8933 25.2116 21.1624 26.6094 20.7972C26.7211 20.7679 26.8168 20.6955 26.8754 20.5959C26.934 20.4963 26.9508 20.3776 26.9222 20.2656ZM27.4844 24.2972C25.8437 24.738 24.738 25.8437 24.2972 27.4844C24.273 27.578 24.2184 27.6611 24.142 27.7204C24.0657 27.7798 23.9717 27.8122 23.875 27.8125C23.838 27.8125 23.8012 27.8073 23.7656 27.7972C23.6537 27.7672 23.5583 27.694 23.5003 27.5938C23.4422 27.4935 23.4264 27.3743 23.4561 27.2623C23.9811 25.2936 25.2991 23.9811 27.2656 23.4517C27.3749 23.4306 27.4882 23.4519 27.5823 23.5114C27.6764 23.5708 27.7443 23.6639 27.7722 23.7717C27.8001 23.8794 27.7859 23.9938 27.7324 24.0914C27.6789 24.1891 27.5902 24.2627 27.4844 24.2972ZM19.069 35.0947C19.2506 36.4717 19.9274 37.7354 20.9729 38.6497C22.0184 39.5639 23.3611 40.0662 24.75 40.0625C33.1937 40.0625 40.0625 33.1937 40.0625 24.75C40.0654 23.3617 39.5628 22.0198 38.6486 20.975C37.7344 19.9301 36.4711 19.2538 35.0947 19.0723C34.8127 19.0381 34.5272 19.0962 34.2811 19.238C34.0349 19.3798 33.8415 19.5976 33.7297 19.8587L31.4219 25.0147C31.3356 25.2146 31.3004 25.4329 31.3195 25.6498C31.3386 25.8667 31.4114 26.0754 31.5312 26.2572C31.5411 26.2714 31.5509 26.2856 31.5619 26.2987L33.8806 29.0561C33.917 29.1165 33.9378 29.185 33.9413 29.2554C33.9447 29.3258 33.9306 29.396 33.9003 29.4597C33.0428 31.2152 31.2042 33.0395 29.428 33.897C29.3638 33.9268 29.2933 33.9402 29.2227 33.9362C29.1521 33.9322 29.0836 33.9109 29.0233 33.8741L26.3031 31.5641L26.2616 31.5323C26.0795 31.4121 25.8704 31.3391 25.6531 31.32C25.4357 31.3009 25.2171 31.3363 25.0169 31.423L19.8522 33.7373C19.5936 33.8498 19.3782 34.0426 19.2377 34.287C19.0973 34.5315 19.0393 34.8147 19.0723 35.0947H19.069ZM20.2011 34.5347L25.368 32.2203C25.4307 32.194 25.4989 32.1829 25.5667 32.188C25.6346 32.1932 25.7003 32.2143 25.7584 32.2498L28.4687 34.5598L28.5092 34.5905C28.6977 34.7163 28.9155 34.7912 29.1414 34.8079C29.3674 34.8245 29.5939 34.7824 29.7987 34.6856C31.7675 33.7352 33.7264 31.7894 34.6769 29.8436C34.7746 29.6403 34.8183 29.4152 34.8038 29.1901C34.7892 28.965 34.7169 28.7474 34.5937 28.5584C34.5839 28.5431 34.573 28.53 34.562 28.5158L32.2444 25.7595C32.2096 25.7005 32.1892 25.634 32.1849 25.5656C32.1805 25.4973 32.1923 25.4288 32.2192 25.3658L34.5314 20.2098C34.564 20.1299 34.6195 20.0614 34.6909 20.0129C34.7623 19.9645 34.8465 19.9382 34.9328 19.9375C34.9503 19.9364 34.9678 19.9364 34.9853 19.9375C36.151 20.0919 37.2205 20.6657 37.9938 21.5514C38.7672 22.4371 39.1916 23.5742 39.1875 24.75C39.1875 32.7103 32.7103 39.1875 24.75 39.1875C23.5741 39.1916 22.4371 38.7672 21.5514 37.9939C20.6657 37.2205 20.0919 36.151 19.9375 34.9853C19.9274 34.8915 19.948 34.7969 19.996 34.7157C20.0441 34.6344 20.1172 34.571 20.2044 34.5347H20.2011Z" fill="#0077FF"/>
<circle cx="30" cy="30" r="17.75" stroke="#0077FF" stroke-width="0.5"/>
<circle cx="30" cy="30" r="23.75" stroke="#5C7B9E" stroke-opacity="0.56" stroke-width="0.5"/>
</g>
<defs>
<clipPath id="clip0_2587_79434">
<rect width="60" height="60" fill="white"/>
</clipPath>
</defs>
</svg>
