<svg width="51" height="51" viewBox="0 0 51 51" fill="none" xmlns="http://www.w3.org/2000/svg">
<path fill-rule="evenodd" clip-rule="evenodd" d="M18.3733 13.5303C16.2136 9.15626 18.0271 3.84649 22.4202 1.67744C23.4619 1.15997 24.5954 0.85276 25.7559 0.773349C26.9164 0.693936 28.0812 0.84388 29.1837 1.21462C30.2863 1.58535 31.305 2.16962 32.1817 2.93406C33.0585 3.6985 33.7761 4.62814 34.2935 5.66991C36.4543 10.0464 34.6409 15.3561 30.2454 17.5264C29.192 18.0481 28.0453 18.3553 26.8721 18.43C25.6989 18.5047 24.5226 18.3455 23.4114 17.9616L16.0973 30.9043C17.1589 32.2813 17.791 33.9407 17.9147 35.675L33.916 37.6501C34.7659 35.787 36.2343 34.2754 38.0718 33.3717C39.1138 32.8546 40.2473 32.5477 41.4079 32.4686C42.5684 32.3896 43.7331 32.5399 44.8355 32.9109C45.9379 33.282 46.9565 33.8666 47.833 34.6313C48.7095 35.396 49.4268 36.3258 49.944 37.3677C52.1036 41.7418 50.2902 47.0516 45.8947 49.2218C43.7909 50.2661 41.3584 50.432 39.1323 49.6831C36.9061 48.9341 35.0686 47.3317 34.0237 45.2282C33.4733 44.1181 33.165 42.9037 33.1192 41.6655L17.247 39.7124C16.4187 41.6912 14.9013 43.3027 12.976 44.2487C11.9342 44.7662 10.8006 45.0733 9.63997 45.1526C8.47937 45.2318 7.31454 45.0816 6.21201 44.7105C5.10949 44.3394 4.09089 43.7547 3.21442 42.9898C2.33795 42.2249 1.62078 41.2948 1.1039 40.2527C0.59117 39.2087 0.289126 38.0739 0.215021 36.9132C0.140915 35.7525 0.296199 34.5886 0.672005 33.4879C1.04781 32.3872 1.63677 31.3713 2.40526 30.4983C3.17374 29.6252 4.10668 28.9122 5.1508 28.3997C7.68016 27.1509 10.5077 27.2125 12.8663 28.3187L19.9567 15.7733C19.3147 15.1131 18.7804 14.3563 18.3733 13.5303Z" fill="white" fill-opacity="0.3"/>
</svg>
