<svg width="32" height="31" viewBox="0 0 32 31" fill="none" xmlns="http://www.w3.org/2000/svg">
<path fill-rule="evenodd" clip-rule="evenodd" d="M9.34703 27.1513H14.4631C14.7592 27.1513 15.0493 27.2476 15.0493 27.5777C15.0493 28.0208 14.5364 27.9863 14.2322 27.9863H9.54246C9.20137 27.9863 8.89664 27.9826 8.83199 27.6475C8.80314 27.498 8.84975 27.3717 8.94206 27.2793C9.03788 27.1834 9.1622 27.1514 9.34703 27.1514V27.1513ZM20.0588 25.5348C20.0588 25.1921 20.2334 25.0729 20.5917 25.0729H22.4037C22.5528 25.0729 22.6873 25.1033 22.7769 25.1616C22.9553 25.2778 23.0519 25.7062 22.7167 25.8478C22.4798 25.9478 22.0492 25.889 21.8173 25.8894L21.3556 25.9078C21.0745 25.9078 20.3916 25.9543 20.2153 25.8224C20.1439 25.7689 20.0588 25.6556 20.0588 25.5348L20.0588 25.5348ZM18.6376 25.9079C18.3283 25.9079 16.7474 25.9433 16.5388 25.8572C16.1825 25.7103 16.2117 25.0729 16.8079 25.0729H18.6199C19.3211 25.0729 19.297 25.6074 19.0494 25.8045C18.9459 25.8868 18.8176 25.9079 18.6376 25.9079ZM13.3261 25.0729C13.641 25.0729 14.8975 25.0528 15.1551 25.1091C15.53 25.1911 15.5639 25.6942 15.2275 25.8553C15.042 25.9442 13.3687 25.9079 13.0773 25.9079C12.4845 25.9079 12.4093 25.2851 12.8352 25.115C12.9188 25.0816 13.2034 25.0729 13.326 25.0729H13.3261ZM9.34696 25.0729H11.1056C11.3607 25.0729 11.7096 25.1156 11.7096 25.446C11.7096 25.6043 11.6976 25.7767 11.4724 25.8661C11.2992 25.9349 9.71185 25.9079 9.45352 25.9079C9.09214 25.9079 8.88766 25.855 8.82574 25.5396C8.77422 25.277 8.99204 25.0729 9.34696 25.0729ZM11.3187 21.9287C11.3187 22.0364 11.3058 22.0903 11.3009 22.1951C11.2897 22.4388 11.0764 22.586 10.8213 22.586C10.507 22.586 9.18761 22.6324 8.99043 22.4983C8.91356 22.446 8.86898 22.3789 8.84701 22.2687C8.79563 22.0112 8.81395 21.519 8.81395 21.2359C8.81395 21.0352 8.82034 20.8015 8.90198 20.6843C9.0131 20.5247 9.1648 20.5075 9.36465 20.5075H10.8391C11.4098 20.5075 11.3187 21.0716 11.3187 21.5378C11.3187 21.6326 11.3096 21.6694 11.3029 21.7365C11.2935 21.8306 11.3187 21.8341 11.3187 21.9286V21.9287ZM16.7191 21.3247C16.7191 21.15 16.8447 21.017 16.992 20.9582C17.0816 20.9224 17.4528 20.9161 17.5895 20.9161H22.4569C23.0531 20.9161 23.0493 21.5703 22.6993 21.7093C22.4682 21.801 18.5853 21.7341 17.8737 21.7333C17.5251 21.7329 17.0684 21.843 16.838 21.6143C16.7767 21.5534 16.7191 21.4394 16.7191 21.3247V21.3247ZM6.32706 24.3801L6.30859 27.081C6.30986 27.1836 6.32797 27.2149 6.32748 27.3286C6.32663 27.5303 6.3093 27.6645 6.3093 27.862C6.3093 28.1938 6.3199 28.68 6.40806 28.9889C6.55155 29.4915 6.9203 29.9564 7.36275 30.2014C7.74694 30.4141 8.11099 30.4911 8.63635 30.4911H23.0075C23.8164 30.4911 24.2414 30.3832 24.6899 30.0062C24.9778 29.7641 25.2405 29.4161 25.3451 29.0449C25.4167 28.7909 25.4373 28.5888 25.4405 28.3232C25.4417 28.2206 25.4599 28.1893 25.4594 28.0756L25.4591 26.4407C25.46 26.2671 25.4412 26.1191 25.4412 25.9257C25.4412 24.8823 25.4167 20.3389 25.4514 20.1093C25.4797 19.9222 25.4683 19.5466 25.446 19.3836C25.4146 19.1546 25.462 19.0734 25.3741 18.7094C25.2426 18.1651 24.8608 17.7286 24.3966 17.4486C24.0899 17.2636 23.6709 17.168 23.1851 17.168H8.47644C8.12952 17.168 7.76 17.2688 7.51192 17.376C7.03837 17.5805 6.56566 18.1073 6.41951 18.6284C6.31793 18.9904 6.32699 19.2535 6.32699 19.7082C6.32699 20.4898 6.32418 21.2719 6.32741 22.0535C6.3279 22.1713 6.30873 22.2067 6.30859 22.319L6.30909 23.2079C6.33295 23.6506 6.32692 23.9284 6.32692 24.3803L6.32706 24.3801Z" fill="#EBEBEB"/>
<path fill-rule="evenodd" clip-rule="evenodd" d="M20.5861 11.7499V15.8357H25.0449C25.1319 15.8357 25.0982 15.6339 25.0982 15.4626C25.0982 15.0775 25.083 14.5656 25.1466 14.2321C25.1892 14.0093 25.2602 13.7524 25.3861 13.6189C25.6661 13.3222 26.7418 13.1661 26.968 14.2145C27.098 14.817 26.9089 15.3685 26.5299 15.6509L26.2836 15.831C26.2367 15.8648 26.1923 15.888 26.1405 15.9188L24.7308 16.7118C24.605 16.7822 24.4792 16.8071 24.4587 16.8837C24.57 16.9096 24.8009 17.06 24.8902 17.1272C25.0884 17.2766 25.2595 17.4271 25.4106 17.6193C25.5677 17.8191 25.6888 18.0123 25.7861 18.2564C25.9328 18.6246 25.988 18.9942 25.9865 19.4061C25.9848 19.862 25.9864 20.3181 25.9864 20.774L26.9397 20.2529C27.7232 19.8624 29.2064 19.1687 29.8556 18.7278C30.139 18.5354 30.2555 18.404 30.4656 18.2364C30.5157 18.1964 30.6096 18.1019 30.6508 18.0486C30.7147 17.9659 30.7651 17.9328 30.826 17.8508C30.9451 17.6906 31.1059 17.4871 31.2032 17.3042C31.23 17.2538 31.2405 17.2243 31.2697 17.1754C31.4396 16.8922 31.5827 16.4088 31.6487 16.0799C31.7115 15.7668 31.7505 15.3245 31.7597 14.8733V14.4681C31.7522 14.1092 31.7242 13.7678 31.6725 13.5068C31.5389 12.8321 31.3117 12.3141 30.8947 11.7975C30.6594 11.5058 30.3865 11.2621 30.0793 11.0497C30.0085 11.0008 29.9594 10.9699 29.8843 10.9249C28.7727 10.2595 27.6436 10.1155 26.2705 10.1155C25.1119 10.1155 23.9419 10.2806 23.0395 10.5439C22.4608 10.7128 21.6379 11.0282 21.1222 11.3623L20.7053 11.6382C20.6653 11.6678 20.5859 11.7006 20.5859 11.7498L20.5861 11.7499Z" fill="#E9A800"/>
<path fill-rule="evenodd" clip-rule="evenodd" d="M0.0664764 11.8029V15.409C0.0664764 15.45 0.0788312 15.4623 0.119756 15.4623H4.61409C4.61409 15.3262 4.62919 15.2345 4.63241 15.1254C4.64189 14.8079 4.61957 14.4259 4.7182 14.092C4.83458 13.698 5.03682 13.4017 5.5023 13.4017C5.71388 13.4017 5.91507 13.4789 6.04549 13.569C6.10537 13.6104 6.17838 13.6888 6.22036 13.7494C6.56053 14.2406 6.61087 15.5124 6.07526 15.9466C5.60107 16.3309 3.85266 16.244 3.17518 16.244V19.2639C3.81019 19.2639 4.87354 19.2263 5.47437 19.3451C5.59117 19.3682 5.66692 19.4 5.76877 19.4238C5.76877 18.7528 5.91626 18.1696 6.2914 17.6904C6.63733 17.2485 7.06617 16.9231 7.63182 16.757C7.79257 16.7098 8.07435 16.6395 8.27294 16.6343L8.62905 16.616C8.74565 16.6179 8.78159 16.6348 9.0018 16.6348H10.565C10.626 16.6348 10.7075 16.4711 10.7395 16.4185C10.7888 16.3372 10.833 16.2519 10.8721 16.1604C11.1112 15.602 11.1939 15.1412 11.2038 14.5201C11.2051 14.4405 11.221 14.4142 11.2149 14.3508C11.2078 14.2793 11.2039 14.228 11.2045 14.1478C11.2084 13.6111 11.046 12.957 10.8431 12.5374C10.8179 12.4853 10.8107 12.4506 10.7841 12.401C10.6877 12.2218 10.5129 11.9433 10.3822 11.7904C9.56724 10.8382 8.41972 10.3894 7.2107 10.2188C7.11081 10.2047 6.97063 10.1774 6.86884 10.1699C6.74656 10.1609 6.61002 10.1588 6.48956 10.1406C6.36756 10.1222 6.23566 10.144 6.11373 10.1256C5.9913 10.1071 5.84655 10.1154 5.71542 10.1154C4.43432 10.1154 2.61065 10.4245 1.51129 10.9385C1.39813 10.9914 1.3075 11.0315 1.19743 11.0865C1.08912 11.1407 0.995472 11.1833 0.889404 11.2404C0.58622 11.4036 0.439016 11.5182 0.179986 11.6856C0.137657 11.7129 0.0664062 11.7482 0.0664062 11.803L0.0664764 11.8029Z" fill="#E9A800"/>
<path fill-rule="evenodd" clip-rule="evenodd" d="M11.8868 10.1333V11.1103H11.2651V9.36938C11.2651 8.83616 11.6977 8.84486 11.8222 9.06093C11.8919 9.18181 11.8751 9.21979 11.8879 9.38609C11.9079 9.6475 11.8868 9.85185 11.8868 10.1332V10.1333ZM14.9067 3.72043C15.0345 3.72043 15.1339 3.7535 15.2442 3.75595C15.1943 3.82412 15.0628 3.798 14.932 3.81674C14.7992 3.83577 14.7026 3.82861 14.5886 3.8642C14.4943 3.89361 14.4002 3.93124 14.2915 3.95791C14.223 3.97476 14.0162 4.00466 13.9474 4.00466C14.1509 3.70071 14.3194 3.73454 14.6752 3.50675C14.7364 3.46758 14.7769 3.40911 14.8352 3.36481C15.172 3.10908 15.2044 3.26099 15.4396 3.41851C15.3936 3.6157 15.4688 3.59345 15.2368 3.62426C15.0911 3.64364 14.9692 3.627 14.9067 3.7205V3.72043ZM16.4877 2.74342C16.5046 2.81615 16.5055 2.82682 16.5055 2.92109C16.4455 2.91611 16.4291 2.91625 16.4252 2.84809C16.4219 2.79081 16.4455 2.77171 16.4877 2.74349V2.74342ZM14.9422 0.8782C14.9705 0.920459 14.9637 0.896732 14.9777 0.94924C15.0642 0.94924 15.0644 0.942992 15.1198 0.91372C15.1198 1.04864 15.1021 1.1069 15.1021 1.23347C14.9777 1.24379 14.798 1.31532 14.6758 1.23347C14.6506 1.28591 14.6557 1.2904 14.6225 1.34003C14.3693 1.28106 14.3997 1.35779 14.1783 1.35779C14.2204 1.53841 14.3897 1.53546 14.5514 1.53546C14.5381 1.59253 14.5267 1.59225 14.5093 1.65332C14.4648 1.80993 14.4644 1.87999 14.2767 1.93587C14.1353 1.97799 13.9462 1.93482 13.7943 1.96858C13.7329 1.9822 13.7214 2.0015 13.6631 2.01512C13.742 2.3534 14.2468 2.23716 14.4688 2.16352C14.674 2.09543 14.8812 2.13944 15.102 2.13944C15.102 2.2618 15.1028 2.26383 14.9598 2.26383C15.0472 2.63855 15.0034 2.3228 14.5872 2.54841C14.4446 2.6257 14.2804 2.58084 14.1115 2.54378C13.7637 2.4674 13.6828 2.60134 13.3789 2.60134C13.2273 2.60134 13.0418 2.54252 12.9881 2.74342C12.8728 2.73381 12.8383 2.58878 12.5796 2.72566C12.6271 2.92966 12.8708 2.86774 13.1125 2.86774C13.2577 2.86774 13.3443 2.83222 13.4678 2.83222C13.7004 2.83222 13.7731 2.92102 14.046 2.82422C14.0881 2.80927 14.2737 2.70566 14.3221 2.78526C14.3377 2.81102 14.3271 2.78828 14.3236 2.84893C14.3205 2.90389 14.316 2.98111 14.315 3.03032C14.3132 3.12586 14.356 3.25881 14.356 3.36516C14.0746 3.43073 13.9899 3.71004 13.7165 3.77371C13.7165 4.06777 13.6464 3.85402 13.5743 4.04011C13.5152 4.19258 13.5654 4.14822 13.287 4.17911C13.1105 4.19869 12.916 4.20985 12.7542 4.26812C12.6782 4.29549 12.6541 4.3016 12.6329 4.35993L13.1303 4.30665C13.2113 4.29753 13.303 4.29612 13.3919 4.28391C13.5847 4.25745 13.5551 4.30665 13.6632 4.30665C13.73 4.30665 13.7549 4.21491 13.8766 4.20037C13.9733 4.18879 14.1006 4.18395 14.184 4.17026C14.2641 4.15706 14.8534 3.93025 14.8534 4.09353L14.8178 4.43104C14.7759 4.45119 14.6753 4.47204 14.6224 4.48432C14.6224 4.67561 14.6071 5.52718 14.6606 5.67298C14.712 5.81345 14.6767 5.62504 14.7349 5.75624C14.7707 5.83682 14.7468 7.39163 14.7468 7.59303C14.9611 7.69587 14.8631 7.66217 14.8965 7.88751C14.9162 8.02138 14.9067 8.17876 14.9067 8.32133C14.8143 8.27247 14.7313 8.23028 14.6411 8.17827L13.8551 7.70303C13.7471 7.63501 12.8456 7.06009 12.8105 7.06009C12.7133 7.06009 12.5139 7.17865 12.4407 7.22316L11.446 7.82728C11.3249 7.90007 10.2171 8.56169 10.1459 8.65884H10.5012V9.03187H9.70175C9.70175 8.94195 9.68968 8.94047 9.684 8.87196C9.78522 8.87196 9.88336 8.83841 9.96823 8.81868C9.96977 8.74883 9.96338 8.77698 9.98599 8.72988L9.68449 8.69078C9.69951 8.50412 10.0983 8.69359 10.2525 8.46341C9.95847 8.26658 9.62657 8.5421 9.59519 8.00158C9.57505 7.65558 9.48863 7.31554 9.48863 6.97122C9.5947 6.94651 9.6741 6.9484 9.68406 6.82914C9.62047 6.81215 9.65774 6.81348 9.59983 6.78905C9.56326 6.77361 9.52549 6.76666 9.48863 6.7581C9.49242 6.75564 9.49909 6.74911 9.50127 6.75297C9.50345 6.7569 9.5111 6.74904 9.51419 6.74813L9.74542 6.71289C9.84117 6.69331 9.88967 6.66249 9.9327 6.59819C9.84966 6.44123 9.62903 6.44263 9.43535 6.43828C9.40131 6.29213 9.27432 4.98736 9.25832 4.75009C9.25186 4.65406 9.23992 4.60422 9.23992 4.50201C9.38629 4.50201 9.41956 4.47464 9.47087 4.37769C9.37028 4.35081 9.34901 4.30988 9.2044 4.30665C9.2044 4.04952 9.51271 4.33242 9.64854 4.0757C9.52823 3.89607 9.08928 3.95138 8.88465 3.95138L8.88486 3.134C8.88564 3.00154 8.86591 2.94714 8.86661 2.81474C8.86788 2.5972 8.86198 2.40058 8.81354 2.19272C8.67497 2.22501 8.72439 2.33143 8.72474 2.60134L8.69021 3.82819C8.69273 4.0133 8.73906 3.95145 8.2806 3.95145C8.13571 3.95145 7.97412 3.97743 7.94309 4.09353C8.06538 4.27619 8.38716 4.0962 8.38716 4.2712C8.38716 4.37608 8.24824 4.31016 8.12069 4.39552C8.18935 4.49808 8.2361 4.48882 8.3694 4.51991C8.3694 4.66965 8.33072 4.84339 8.31767 5.00105C8.29198 5.31097 8.17404 6.24327 8.17404 6.45618C8.03512 6.45618 7.69438 6.43364 7.69438 6.61609C7.69438 6.7223 8.03491 6.74048 8.12069 6.74048L8.0048 6.80218C7.95046 6.83258 7.95046 6.85279 7.92533 6.90032C7.9678 6.92278 8.0519 6.9595 8.103 6.97136C8.103 7.30325 8.0222 7.63669 7.99602 7.96578C7.96205 8.39356 7.71958 8.27977 7.44083 8.3876C7.39141 8.40669 7.39443 8.41518 7.33918 8.42803C7.40425 8.70749 7.89087 8.49324 7.90764 8.6945C7.806 8.69675 7.72036 8.73002 7.60565 8.73002C7.61302 8.81861 7.62524 8.81363 7.69522 8.83588C7.74612 8.85209 7.80972 8.8707 7.87212 8.8721C7.8027 9.17009 7.54633 9.06641 7.30366 9.06753C7.18643 9.06802 7.12683 9.05721 7.03719 9.04977V7.25559H5.74043C5.74043 6.97129 5.81329 6.95184 5.52731 6.95353L2.72053 6.97136C2.72053 7.06605 2.71758 7.16672 2.73829 7.25559L1.88574 7.23369C1.74702 7.23362 1.65843 7.25341 1.54844 7.25594C1.26771 7.2624 1.24609 7.18637 1.24609 8.01948C1.24609 8.78885 1.28161 9.55 1.28161 10.311C1.39428 10.2848 1.50695 10.2242 1.61709 10.1846L2.48754 9.90036C2.54489 9.884 2.64949 9.87993 2.64949 9.81359V8.46348C2.64949 8.40227 2.63636 8.39469 2.63173 8.33916H5.82923V9.40497C5.82923 9.49742 6.16014 9.45011 6.31373 9.47117L6.84689 9.50648C6.91041 9.51469 7.05474 9.53041 7.10079 9.52325C7.13076 9.51855 7.20195 9.50058 7.21935 9.49826L7.60537 9.49412C7.70133 9.50318 7.73973 9.53842 7.7478 9.63592C8.01308 9.69777 8.29345 9.76122 8.54946 9.8468C8.62422 9.87179 8.72924 9.91826 8.81368 9.92015V9.79576C8.81368 9.68464 9.15793 9.72163 9.19816 9.36243C9.22455 9.12671 8.99444 8.94307 8.72481 8.94307C8.45982 8.94307 8.46417 9.10375 8.33402 9.1385C8.28299 9.0476 8.38443 8.98877 8.46424 8.94897C8.53893 8.91176 8.57277 8.87315 8.65377 8.85427V4.78631H8.70705V8.85427C8.76118 8.85308 8.77185 8.84627 8.81361 8.83651C8.81361 8.5965 8.79585 8.42087 8.79585 8.17925V4.9284C8.79585 4.84676 8.80329 4.8033 8.86689 4.78631C8.86689 5.06163 8.84717 8.66003 8.8676 8.80029C8.88788 8.93963 9.13961 8.90994 9.24126 9.20828C9.25782 9.25692 9.2513 9.29841 9.31096 9.29841H10.5012V9.36945H9.34648C9.24617 9.36945 9.21367 9.60153 9.15176 9.65438C9.024 9.76354 8.88458 9.76017 8.88458 9.92015C8.88458 9.99597 9.12431 10.0638 9.1917 10.0926C9.41837 10.1897 9.61555 10.3109 9.82523 10.4361C9.8769 10.467 9.91979 10.4978 9.97532 10.5347C10.0235 10.5667 10.0803 10.6179 10.1281 10.6307C10.0432 10.4538 9.95039 9.90787 9.95039 9.6892C9.95039 9.40294 10.3704 9.5116 10.5366 9.5116V10.9505C10.5366 11.0113 10.6853 11.1193 10.7268 11.1689C10.7972 11.2531 10.8526 11.3149 10.9219 11.4001L11.1817 11.7621C11.2062 11.8046 11.2321 11.8742 11.2827 11.8742C12.152 11.8742 12.0468 11.958 12.0466 11.6078V10.6308C12.0466 10.3435 12.0245 10.2514 12.1339 10.0608C12.2189 9.91264 12.3551 9.85115 12.4907 9.76031C12.4907 9.4777 12.3695 8.92538 12.846 8.92538C12.9789 8.92538 13.0796 9.09315 13.1055 9.21656L13.1302 9.74255H13.752C13.752 9.47727 13.6634 8.92545 14.0717 8.92545C14.2171 8.92545 14.3092 9.01537 14.3453 9.14924C14.3641 9.21909 14.3689 9.29125 14.3745 9.36917C14.4086 9.84293 14.1995 9.74262 14.9422 9.74262C14.9422 9.44189 14.9599 9.20491 14.9599 8.90769C14.9726 8.92594 14.9632 8.90916 14.9794 8.94153C15.0661 9.11435 15.0314 9.34109 15.0306 9.52985C15.0302 9.63171 15.047 9.66498 15.0488 9.74262H16.4166C16.4166 9.47861 16.3312 8.82661 16.2461 8.58078C16.1678 8.35411 16.0791 8.23035 16.0791 7.94844C16.0791 7.7627 16.0614 7.55203 16.108 7.37338C16.1331 7.27707 16.1679 7.20041 16.1679 7.09575C16.1679 6.81145 16.0956 6.58043 16.0968 6.27865C16.0975 6.11109 16.0772 6.00102 16.0783 5.85185L16.0791 4.48439C16.0297 4.45828 15.999 4.44551 15.9371 4.43111C15.9371 4.3287 15.9043 4.22881 15.9612 4.13551C16 4.07184 16.0866 4.01997 16.1325 3.95145C16.0699 3.83317 16.0193 3.68814 15.9915 3.55947C15.9797 3.50479 15.9759 3.44456 15.9549 3.40075C16.0322 3.40251 16.3457 3.44189 16.3457 3.54283C16.3457 3.92323 16.2292 3.84517 16.2746 4.04025C16.3559 4.03344 16.3773 4.00494 16.4103 3.945C16.513 3.75841 16.4878 3.52065 16.4878 3.31195C16.6254 3.30051 16.7543 3.24014 16.7543 3.68498C16.7543 3.75336 16.7275 3.74641 16.7548 3.80762C16.777 3.85753 16.8027 3.8668 16.8609 3.88034C16.9802 3.65487 16.7502 3.06486 16.7163 3.03018C16.6825 2.99571 16.6774 2.99761 16.6227 2.98167L16.5234 2.93885H16.7366C16.7843 2.84872 16.9676 2.60113 16.9676 2.49471C16.9676 2.34519 16.8402 2.13846 16.7447 2.07809C16.6329 2.00733 16.397 1.96184 16.2215 1.96184C16.1638 1.96184 16.1844 1.97532 16.167 2.01393C16.1668 2.01463 16.1557 2.05085 16.1543 2.05457C16.1435 2.08413 16.1442 2.08209 16.1326 2.10392H15.8662C15.8528 2.16141 15.836 2.18184 15.8306 2.246C15.5739 2.1228 15.6707 2.13207 15.6707 1.73082C15.6707 1.44182 15.5412 1.39647 15.3865 1.32227C15.3916 1.09687 15.4533 1.08493 15.2267 0.91365C15.0629 0.789821 15.1417 0.831729 14.9424 0.87813L14.9422 0.8782Z" fill="#EBEBEB"/>
<path fill-rule="evenodd" clip-rule="evenodd" d="M19.6656 11.0925C19.5284 11.0605 19.552 10.9327 19.5584 10.7189L19.5768 9.74241C19.6917 9.74241 19.6858 9.74129 19.6849 9.86526L19.6828 10.4181C19.6883 10.6034 19.7189 10.4471 19.6859 10.7398L19.6656 11.0925ZM19.5945 8.3923H19.6656C19.6656 8.52743 19.7006 8.63504 19.7015 8.89007C19.7019 9.00372 19.6839 9.0351 19.6826 9.13766C19.6815 9.23193 19.6833 9.32803 19.6833 9.42259C19.5435 9.42259 19.5753 9.39374 19.5768 9.19164C19.5787 8.90404 19.5447 9.06051 19.5757 8.65772C19.5793 8.61118 19.5744 8.56646 19.5794 8.51929C19.5852 8.46481 19.5945 8.46839 19.5945 8.3923ZM19.5768 7.53961H19.6656C19.6656 7.65227 19.6833 7.68793 19.6833 7.80608V8.10807H19.5768V7.53961ZM25.1014 7.82384C25.1509 7.611 25.3681 7.52697 25.4668 7.81366C25.5013 7.91376 25.5099 8.0338 25.5099 8.16135C25.4312 8.1087 25.1354 7.87473 25.1014 7.82384ZM17.1253 7.71728V7.64624C17.1253 7.54831 17.138 7.51195 17.2319 7.50409V7.7528C17.1853 7.76368 17.1253 7.79485 17.1253 7.71728ZM17.8536 7.39753C17.9435 7.39753 17.945 7.4096 18.0135 7.41529C18.0222 7.51876 18.049 7.59429 18.049 7.71728H17.8714L17.8537 7.39753H17.8536ZM18.2799 6.58043C18.2799 6.67484 18.3056 6.66705 18.2799 6.72251C18.237 6.69106 18.2146 6.6495 18.2089 6.58043H18.2799ZM17.7825 6.42052C17.8588 6.44087 17.853 6.46614 17.8713 6.54484C17.7887 6.53796 17.7843 6.50503 17.7825 6.42052ZM17.7647 5.95862L17.7825 6.42052L17.7647 5.95862ZM17.747 5.49671H17.7825L17.8205 5.62026C17.7011 5.5938 17.747 5.58243 17.747 5.49671ZM19.5412 5.28352C19.5412 5.0876 19.5319 5.08515 19.5767 4.89273H19.6477C19.687 5.06135 19.6655 5.55877 19.6655 5.76318C19.6655 5.80411 19.6531 5.81646 19.6122 5.81646C19.5107 5.81646 19.5645 5.68288 19.5593 5.58594C19.5541 5.48625 19.5412 5.41037 19.5412 5.28352ZM18.2622 6.11846C18.2515 5.9902 18.1771 5.7893 18.1329 5.6793C18.1188 5.64441 18.0637 5.49124 18.0518 5.47615C18.006 5.41844 17.9173 5.44336 17.907 5.31897C17.9475 5.30957 17.9478 5.30522 17.9958 5.30121C17.9558 5.21796 17.9142 5.10361 17.8834 5.00505C17.8347 4.84942 17.778 4.94531 17.6938 4.7861C17.7479 4.7873 17.7585 4.79411 17.8003 4.80386C17.7732 4.68734 17.7085 4.50812 17.6582 4.41307C17.5126 4.45196 17.4891 4.7204 17.4515 4.84591L17.0745 6.06763C16.9787 6.38654 16.9081 6.11733 16.8534 6.50384C16.8418 6.58639 16.8301 6.68362 16.8157 6.78596C16.7973 6.91759 16.7516 7.3837 16.7095 7.4791C16.688 7.52788 16.6724 7.52831 16.6303 7.55982C16.4171 7.7198 16.4345 8.08511 16.6278 8.21456C16.5881 8.38514 16.5773 8.73149 16.5552 8.92362C16.5493 8.97578 16.5079 9.24302 16.5162 9.2591C16.5439 9.31189 16.82 9.28044 16.8942 9.28044C16.9222 9.16054 16.9363 8.95493 16.948 8.8191C16.9686 8.58029 17.0194 8.32751 17.0188 8.09045C17.0185 7.97624 17.035 7.94521 17.0364 7.84167C17.0388 7.66793 17.048 7.50009 17.214 7.48626L17.1773 9.102C17.1551 9.34341 17.0595 9.28044 17.9778 9.28044C17.9778 9.17893 17.9672 9.14271 17.961 9.06634L17.8712 7.48626C17.9204 7.50984 18.0483 7.52915 18.0827 7.55898C18.105 7.57822 18.0912 7.54796 18.1101 7.60264L18.4109 9.43354C18.435 9.55625 18.5239 9.60882 18.5609 9.72774C18.6326 9.95925 18.5872 10.2963 18.6011 10.5591C18.6054 10.64 18.6065 10.5962 18.6023 10.6685C18.5878 10.9151 18.5996 11.1652 18.5996 11.4121H19.8964C19.8964 10.9137 20.0661 10.7989 20.422 10.5522C20.5176 10.4859 20.6033 10.433 20.7032 10.3716L20.9162 10.2471C21.0241 10.188 20.9887 10.123 21.0189 9.99449L21.1731 9.45586C21.2107 9.35134 21.258 9.228 21.3056 9.12643C21.4512 8.81566 21.6096 8.52427 21.8121 8.24741C21.9696 8.03211 22.1535 7.80903 22.376 7.65656C22.6223 7.48766 22.8824 7.31575 23.2005 7.30866C23.4075 7.6998 23.5114 8.23499 23.5685 8.6992L23.609 9.26268C23.7471 9.23053 23.9025 9.20182 24.0404 9.17893C24.123 9.16517 24.4563 9.12249 24.4973 9.10284C24.5317 9.06809 24.2896 8.18746 24.282 8.16345L23.9466 7.30866C24.2362 7.4619 24.444 7.66926 24.5683 7.73497L24.5682 8.90755C24.5652 9.23636 24.6198 9.04949 25.0302 9.04949V8.25008C25.0984 8.26826 25.0696 8.26068 25.1098 8.31262C25.242 8.48327 25.4573 8.80885 25.4743 9.01397C25.6536 9.01397 25.7622 8.99579 25.9362 8.99621C26.102 8.99656 26.2678 8.99621 26.4336 8.99621C26.401 8.85638 26.2909 8.70791 26.2194 8.58864C25.9963 8.21631 25.8926 8.12218 26.0208 7.64203C26.1181 7.27805 26.5275 7.13604 26.6438 7.56025C26.7033 7.77723 26.6966 8.50925 26.6823 8.7654C26.668 9.02295 26.5811 9.01397 27.0375 9.01397L27.0374 8.10793C27.037 7.98515 27.0532 7.92261 27.0558 7.82426C27.0645 7.48878 27.1194 7.07265 27.5351 7.07595C27.8321 7.07827 27.8928 7.3877 27.8905 7.62806C27.8893 7.75385 27.9073 7.80495 27.9087 7.91187L27.8896 8.49816C27.8892 8.71935 27.908 8.8775 27.908 9.10277C28.0616 9.10621 28.2234 9.17058 28.3698 9.17381C28.3698 8.96265 28.391 8.58927 28.3623 8.39967C28.3109 8.06033 28.3149 7.28254 28.5188 7.01355C28.6431 6.84956 28.8513 6.74595 29.0735 6.78196C29.5863 6.86494 29.4889 7.54726 29.4889 7.94809C29.4889 8.22551 29.4711 8.43849 29.4711 8.71198C29.4711 8.97845 29.4711 9.24492 29.4711 9.51139C29.5302 9.54263 29.577 9.55772 29.6429 9.58826C29.9292 9.72093 30.1937 9.88161 30.4553 10.0549L30.7501 10.2753V6.1007C30.6815 6.09501 30.5407 6.0517 30.4814 6.0319C30.1173 5.91032 30.0516 5.84237 29.6489 5.941C29.0851 6.07907 28.518 6.18079 27.9537 6.30637L26.8108 6.54912C26.5774 6.59854 26.4842 6.66565 26.2558 6.54484C26.3678 6.06384 25.9155 5.64813 25.4603 5.71384C25.3736 5.72633 25.234 5.78354 25.1761 5.83823C24.9737 6.02916 24.9843 6.15475 24.8591 6.3739C24.8015 6.47457 24.6876 6.4733 24.5859 6.52708C24.5859 6.62184 24.5856 6.71661 24.586 6.81138C24.5865 6.93071 24.5682 7.00337 24.5682 7.09554L24.0891 6.9173C23.9078 6.81699 23.9299 6.71373 23.6576 6.67386C23.255 6.61489 23.1521 6.68299 22.825 6.80906C22.7355 6.8436 22.6488 6.85722 22.5571 6.8787C21.8988 7.03271 21.2931 7.37373 20.8555 7.87719C20.8555 6.80309 20.8377 5.77877 20.8377 4.7152C20.7738 4.67238 20.7066 4.63392 20.6423 4.59081C20.6423 4.36646 20.6734 4.35986 20.5496 4.2394C20.2599 3.95756 19.8526 4.05787 19.381 4.05787V4.4309L19.2211 4.50194V5.79871C19.1825 5.80769 19.1125 5.83598 19.079 5.85198V6.42045H19.2389C19.3294 6.24944 19.378 6.05893 19.6473 6.06363C19.9937 6.0696 20.1607 6.47352 19.9279 6.70089C19.79 6.83559 19.5413 6.87701 19.3883 6.7329C19.3569 6.70334 19.2621 6.53529 19.2389 6.49149H19.079V6.97115C19.1125 6.98722 19.1826 7.01544 19.2211 7.02443C19.2211 7.47432 19.2234 7.92485 19.2209 8.37475C19.2201 8.50714 19.2398 8.56161 19.2391 8.69401C19.2373 9.01271 19.2698 9.40371 19.2034 9.68906H19.1146C19.0483 9.55098 18.9821 8.94707 18.9497 8.75262L18.5832 6.5077C18.5578 6.35888 18.4323 6.42775 18.3618 6.30279C18.3272 6.24151 18.3068 6.17012 18.2619 6.11846H18.2622Z" fill="#EBEBEB"/>
<path fill-rule="evenodd" clip-rule="evenodd" d="M12.6953 13.118C12.7741 13.139 12.916 13.2666 12.9648 13.3282C13.2038 13.6294 13.2105 14.1374 13.2105 14.5569V16.6353H17.9002C17.9411 16.6353 17.9535 16.623 17.9535 16.582V10.4001H12.6953V13.1181V13.118Z" fill="#EAA700"/>
<path fill-rule="evenodd" clip-rule="evenodd" d="M0 24.2204C0 24.2979 0.410656 24.5656 0.46885 24.6043C0.643853 24.7205 0.824542 24.8381 1.01267 24.9309C1.22348 25.0348 1.34351 25.114 1.59875 25.2153C1.80766 25.2982 2.00857 25.3787 2.23601 25.4485C3.43442 25.8159 4.38742 25.8903 5.77334 25.8903V22.5684C4.67587 22.824 4.63347 21.6876 4.63649 20.8808C4.63705 20.7222 4.6183 20.6341 4.61866 20.4723C4.61894 20.3302 4.61866 20.188 4.61866 20.0459H0V24.2205V24.2204Z" fill="#EAA700"/>
<path fill-rule="evenodd" clip-rule="evenodd" d="M25.9688 22.4259C25.9688 22.866 25.9865 23.2463 25.9865 23.6872V25.5879H31.4756V20.8626C31.4756 20.8217 31.4633 20.8093 31.4223 20.8093H27.0169C27.0169 21.1272 26.9819 21.4044 26.9005 21.6878C26.8724 21.7855 26.7967 21.9481 26.7371 22.0219C26.4587 22.3663 26.1339 22.3385 25.9688 22.4259Z" fill="#EAA700"/>
<path fill-rule="evenodd" clip-rule="evenodd" d="M4.92437 9.1915C4.92437 9.14348 4.93286 9.1425 4.94213 9.1027H5.2974V9.33365H4.92437V9.19157V9.1915ZM4.49806 9.1027H4.85333C4.85515 9.183 4.87109 9.17332 4.87109 9.26261V9.33365H4.49806V9.1027ZM4.07175 9.1027H4.42702V9.33365H4.07175V9.1027ZM3.62761 9.12046L4.00064 9.1027V9.35141L3.62761 9.33365V9.12046ZM3.55657 9.33365H3.2013V9.1027H3.52105C3.6163 9.1027 3.55657 9.24211 3.55657 9.33365ZM4.92437 8.69415H5.2974V9.03166H4.92437V8.69415ZM4.49806 8.69415H4.87109V9.03166H4.49806V8.69415ZM4.07175 8.69415H4.42702V9.03166H4.07175V8.69415ZM3.62761 8.69415H4.00064V9.03166H3.62761V8.69415ZM3.55657 8.81854V9.01397L3.2013 9.03173V8.69422H3.57433C3.56969 8.74974 3.55657 8.75733 3.55657 8.81861V8.81854ZM2.8282 8.90734C2.8282 9.23067 2.84596 9.4911 2.84596 9.81331C2.88527 9.79443 2.98509 9.77316 3.02791 9.76431C3.23043 9.72282 3.20123 9.79815 3.20123 9.44021H3.50322C3.5711 9.44021 3.50967 9.44568 3.5565 9.42245V9.6534H3.62754V9.44021L3.98281 9.42245V9.58236C4.08445 9.58011 4.07161 9.58622 4.07161 9.42245H4.42688V9.52901H4.49792C4.49792 9.38875 4.49055 9.47313 4.51568 9.42245H4.85319C4.86007 9.505 4.83416 9.45355 4.88871 9.49349C5.00952 9.46127 4.85894 9.43965 5.04707 9.43866C5.11524 9.43831 5.19147 9.43389 5.25345 9.43354L5.4206 9.45895C5.49185 9.45902 5.56345 9.45797 5.63484 9.45797V8.48096H2.82812V8.90727L2.8282 8.90734Z" fill="#EBEBEB"/>
<path fill-rule="evenodd" clip-rule="evenodd" d="M9.36076 22.0351C9.8487 22.0351 10.2768 22.0529 10.7642 22.0529C10.7642 21.8763 10.7578 21.5851 10.7771 21.4441C10.7871 21.3706 10.7813 21.2927 10.7823 21.2177C10.7849 21.0122 10.8224 21.0404 10.5154 21.0404C10.3147 21.0404 10.3076 21.0578 10.2133 21.0595C10.1368 21.0608 10.1218 21.049 10.0687 21.043L9.36076 21.0404C9.36076 21.2057 9.3741 21.3891 9.35051 21.5453C9.32622 21.7056 9.34946 21.8992 9.36076 22.0352V22.0351Z" fill="#E9A800"/>
</svg>
