<svg width="71" height="66" viewBox="0 0 71 66" fill="none" xmlns="http://www.w3.org/2000/svg">
<path fill-rule="evenodd" clip-rule="evenodd" d="M20.7585 58.4756H32.1252C32.7831 58.4756 33.4277 58.6895 33.4277 59.4228C33.4277 60.4074 32.2881 60.3307 31.6121 60.3307H21.1927C20.4349 60.3307 19.7579 60.3226 19.6142 59.578C19.5501 59.2459 19.6537 58.9652 19.8588 58.76C20.0716 58.5468 20.3479 58.4758 20.7585 58.4758V58.4756ZM44.5575 54.8841C44.5575 54.1226 44.9455 53.8579 45.7416 53.8579H49.7673C50.0986 53.8579 50.3975 53.9253 50.5965 54.0549C50.993 54.3132 51.2075 55.2648 50.4627 55.5794C49.9365 55.8017 48.9797 55.6711 48.4645 55.6719L47.4388 55.7128C46.8143 55.7128 45.2969 55.8162 44.9053 55.523C44.7465 55.4041 44.5577 55.1525 44.5577 54.884L44.5575 54.8841ZM41.4 55.7129C40.7129 55.7129 37.2004 55.7917 36.7369 55.6005C35.9454 55.2739 36.0101 53.8579 37.3349 53.8579H41.3606C42.9187 53.8579 42.865 55.0454 42.3149 55.4832C42.085 55.6661 41.7999 55.7129 41.4 55.7129ZM29.5991 53.8579C30.2988 53.8579 33.0903 53.8131 33.6627 53.9384C34.4956 54.1204 34.5711 55.2382 33.8235 55.5961C33.4113 55.7936 29.6936 55.7129 29.0464 55.7129C27.7293 55.7129 27.5621 54.3292 28.5083 53.9513C28.6941 53.8771 29.3265 53.8579 29.599 53.8579H29.5991ZM20.7584 53.8579H24.6657C25.2325 53.8579 26.0076 53.9527 26.0076 54.6867C26.0076 55.0384 25.9809 55.4214 25.4806 55.6201C25.0958 55.773 21.569 55.7129 20.9951 55.7129C20.1922 55.7129 19.7379 55.5955 19.6003 54.8947C19.4859 54.3113 19.9698 53.8579 20.7584 53.8579ZM25.1392 46.8722C25.1392 47.1114 25.1103 47.2312 25.0996 47.464C25.0746 48.0055 24.6008 48.3324 24.034 48.3324C23.3358 48.3324 20.4043 48.4357 19.9662 48.1376C19.7954 48.0215 19.6964 47.8724 19.6476 47.6275C19.5334 47.0554 19.5741 45.962 19.5741 45.3328C19.5741 44.8869 19.5883 44.3679 19.7697 44.1074C20.0166 43.7528 20.3536 43.7145 20.7977 43.7145H24.0735C25.3415 43.7145 25.1392 44.9679 25.1392 46.0036C25.1392 46.2143 25.1189 46.296 25.1039 46.4451C25.083 46.6543 25.1392 46.6621 25.1392 46.872V46.8722ZM37.1374 45.5303C37.1374 45.1421 37.4166 44.8467 37.744 44.7158C37.9428 44.6363 38.7677 44.6224 39.0714 44.6224H49.8855C51.2103 44.6224 51.2017 46.0758 50.4242 46.3846C49.9108 46.5885 41.2838 46.4398 39.7029 46.438C38.9283 46.437 37.9135 46.6817 37.4018 46.1736C37.2655 46.0382 37.1374 45.7851 37.1374 45.5301V45.5303ZM14.0488 52.3187L14.0078 58.3194C14.0106 58.5474 14.0509 58.6168 14.0498 58.8695C14.0479 59.3175 14.0094 59.6157 14.0094 60.0545C14.0094 60.7919 14.0329 61.8719 14.2288 62.5583C14.5476 63.675 15.3669 64.7078 16.3499 65.2522C17.2035 65.7248 18.0123 65.8957 19.1795 65.8957H51.1089C52.906 65.8957 53.8504 65.6562 54.8467 64.8185C55.4865 64.2806 56.0701 63.5075 56.3025 62.6827C56.4615 62.1183 56.5074 61.6693 56.5144 61.0791C56.5171 60.8513 56.5575 60.7817 56.5564 60.5291L56.5557 56.8968C56.5578 56.5111 56.516 56.1822 56.516 55.7525C56.516 53.4345 56.4615 43.3399 56.5387 42.8299C56.6016 42.4143 56.5763 41.5797 56.5267 41.2176C56.457 40.7088 56.5621 40.5284 56.3669 39.7197C56.0747 38.5102 55.2265 37.5406 54.1952 36.9185C53.5138 36.5073 52.5827 36.2949 51.5035 36.2949H18.8243C18.0535 36.2949 17.2325 36.5189 16.6813 36.757C15.6292 37.2115 14.5789 38.3819 14.2542 39.5396C14.0286 40.344 14.0487 40.9284 14.0487 41.9387C14.0487 43.6752 14.0424 45.413 14.0496 47.1495C14.0507 47.4112 14.0081 47.4898 14.0078 47.7393L14.0089 49.7143C14.0619 50.6978 14.0485 51.3151 14.0485 52.319L14.0488 52.3187Z" fill="#EBEBEB"/>
<path fill-rule="evenodd" clip-rule="evenodd" d="M45.7464 24.2565V33.3342H55.6529C55.8462 33.3342 55.7712 32.886 55.7712 32.5054C55.7712 31.6496 55.7375 30.5124 55.8788 29.7714C55.9734 29.2765 56.1312 28.7057 56.411 28.409C57.033 27.7498 59.4229 27.4031 59.9256 29.7322C60.2145 31.071 59.7941 32.2963 58.9522 32.9237L58.405 33.3237C58.3008 33.3989 58.2022 33.4504 58.0871 33.5189L54.9551 35.2808C54.6756 35.4372 54.396 35.4926 54.3504 35.6627C54.5978 35.7203 55.1107 36.0543 55.3091 36.2038C55.7496 36.5356 56.1296 36.8699 56.4654 37.2971C56.8143 37.7409 57.0835 38.1701 57.2997 38.7126C57.6256 39.5306 57.7482 40.3517 57.7448 41.2669C57.741 42.2798 57.7446 43.2932 57.7446 44.306L59.8628 43.1483C61.6035 42.2807 64.8986 40.7393 66.3411 39.7599C66.9708 39.3324 67.2295 39.0404 67.6963 38.668C67.8077 38.5791 68.0163 38.3693 68.1079 38.2508C68.2498 38.067 68.3618 37.9934 68.4972 37.8113C68.7617 37.4555 69.119 37.0034 69.3352 36.5969C69.3947 36.485 69.418 36.4194 69.483 36.3107C69.8603 35.6814 70.1783 34.6076 70.3249 33.8768C70.4645 33.1812 70.5511 32.1985 70.5715 31.1959V30.2957C70.555 29.4983 70.4927 28.7398 70.3778 28.16C70.081 26.6609 69.5763 25.5102 68.6499 24.3623C68.1269 23.7142 67.5207 23.1727 66.838 22.701C66.6808 22.5922 66.5717 22.5235 66.4048 22.4237C63.9353 20.9453 61.4266 20.6252 58.3758 20.6252C55.8016 20.6252 53.2022 20.9921 51.1973 21.5771C49.9116 21.9523 48.0832 22.6531 46.9377 23.3955L46.0112 24.0084C45.9225 24.0741 45.7461 24.147 45.7461 24.2564L45.7464 24.2565Z" fill="#E9A800"/>
<path fill-rule="evenodd" clip-rule="evenodd" d="M0.156406 24.3758V32.3877C0.156406 32.4787 0.183855 32.5061 0.274782 32.5061H10.2601C10.2601 32.2037 10.2937 31.9999 10.3009 31.7575C10.3219 31.0522 10.2723 30.2033 10.4914 29.4616C10.75 28.5861 11.1994 27.9278 12.2335 27.9278C12.7036 27.9278 13.1506 28.0994 13.4404 28.2996C13.5734 28.3915 13.7356 28.5657 13.8289 28.7005C14.5847 29.7917 14.6965 32.6175 13.5065 33.5819C12.453 34.4358 8.56842 34.2428 7.06322 34.2428V40.9523C8.47406 40.9523 10.8366 40.8687 12.1715 41.1327C12.431 41.184 12.5993 41.2547 12.8256 41.3076C12.8256 39.8169 13.1533 38.5211 13.9867 37.4564C14.7553 36.4746 15.7081 35.7515 16.9648 35.3825C17.322 35.2777 17.948 35.1216 18.3892 35.1099L19.1804 35.0692C19.4395 35.0734 19.5194 35.1112 20.0086 35.1112H23.4817C23.6173 35.1112 23.7984 34.7473 23.8693 34.6305C23.979 34.4499 24.0771 34.2604 24.1641 34.057C24.6953 32.8165 24.879 31.7927 24.901 30.4128C24.9038 30.2359 24.9392 30.1774 24.9255 30.0366C24.9099 29.8777 24.9012 29.7638 24.9024 29.5855C24.9111 28.3931 24.5504 26.9398 24.0995 26.0076C24.0435 25.8919 24.0276 25.8147 23.9685 25.7046C23.7542 25.3064 23.366 24.6877 23.0755 24.348C21.2649 22.2324 18.7154 21.2351 16.0292 20.8563C15.8073 20.825 15.4958 20.7643 15.2697 20.7476C14.998 20.7276 14.6946 20.7228 14.427 20.6824C14.1559 20.6415 13.8629 20.69 13.592 20.6492C13.32 20.608 12.9984 20.6264 12.7071 20.6264C9.86073 20.6264 5.80897 21.3131 3.36643 22.4552C3.11502 22.5728 2.91367 22.6617 2.66912 22.784C2.42847 22.9044 2.22042 22.9991 1.98476 23.1259C1.31116 23.4885 0.984101 23.7432 0.408598 24.1151C0.314552 24.1758 0.15625 24.2543 0.15625 24.3759L0.156406 24.3758Z" fill="#E9A800"/>
<path fill-rule="evenodd" clip-rule="evenodd" d="M26.399 20.6652V22.8359H25.0176V18.968C25.0176 17.7833 25.9788 17.8026 26.2555 18.2827C26.4102 18.5513 26.3731 18.6356 26.4013 19.0051C26.4458 19.5859 26.399 20.0399 26.399 20.665V20.6652ZM33.1085 6.41736C33.3924 6.41736 33.6132 6.49081 33.8584 6.49627C33.7475 6.64771 33.4554 6.58969 33.1646 6.63134C32.8697 6.6736 32.6551 6.65769 32.4017 6.73677C32.1922 6.80212 31.9832 6.88571 31.7416 6.94498C31.5896 6.98241 31.13 7.04885 30.9771 7.04885C31.4292 6.37353 31.8036 6.4487 32.5941 5.9426C32.7301 5.85558 32.8201 5.72566 32.9497 5.62725C33.6979 5.05907 33.7699 5.39658 34.2924 5.74656C34.1903 6.18466 34.3574 6.13522 33.8418 6.20369C33.5182 6.24673 33.2475 6.20977 33.1085 6.41751V6.41736ZM36.6211 4.24666C36.6587 4.40824 36.6606 4.43195 36.6606 4.64141C36.5274 4.63033 36.4909 4.63065 36.4823 4.47921C36.475 4.35194 36.5274 4.30952 36.6211 4.24682V4.24666ZM33.1874 0.102576C33.2503 0.196465 33.2351 0.14375 33.2663 0.26041C33.4583 0.26041 33.4589 0.246529 33.582 0.181493C33.582 0.481254 33.5425 0.610703 33.5425 0.891904C33.2663 0.91483 32.8669 1.07376 32.5954 0.891904C32.5394 1.00841 32.5509 1.01839 32.477 1.12866C31.9144 0.997647 31.982 1.16811 31.4902 1.16811C31.5838 1.56941 31.9598 1.56286 32.319 1.56286C32.2895 1.68965 32.2643 1.68903 32.2256 1.82472C32.1267 2.17267 32.1258 2.32832 31.7089 2.45247C31.3946 2.54605 30.9745 2.45013 30.637 2.52515C30.5005 2.5554 30.4751 2.59829 30.3456 2.62855C30.5208 3.38014 31.6423 3.12186 32.1356 2.95826C32.5915 2.80697 33.0519 2.90476 33.5424 2.90476C33.5424 3.1766 33.5443 3.18113 33.2266 3.18113C33.4206 4.01366 33.3233 3.31214 32.3986 3.8134C32.0818 3.98512 31.717 3.88545 31.3418 3.80311C30.569 3.63342 30.3893 3.931 29.7141 3.931C29.3772 3.931 28.965 3.8003 28.8459 4.24666C28.5896 4.2253 28.5129 3.90308 27.9382 4.20721C28.0438 4.66043 28.5853 4.52287 29.1222 4.52287C29.4448 4.52287 29.6372 4.44396 29.9116 4.44396C30.4284 4.44396 30.59 4.64125 31.1962 4.42618C31.2898 4.39296 31.7022 4.16276 31.8096 4.33962C31.8443 4.39686 31.8209 4.34632 31.8131 4.48108C31.8061 4.6032 31.7961 4.77476 31.7939 4.88408C31.7898 5.09635 31.885 5.39174 31.885 5.62803C31.2597 5.7737 31.0716 6.39427 30.4641 6.53573C30.4641 7.18906 30.3083 6.71415 30.1482 7.12761C30.017 7.46636 30.1284 7.36779 29.5098 7.43642C29.1177 7.47993 28.6855 7.50473 28.3262 7.63418C28.1573 7.695 28.1037 7.70857 28.0567 7.83818L29.1617 7.7198C29.3417 7.69953 29.5454 7.69641 29.743 7.66927C30.1713 7.61047 30.1056 7.7198 30.3458 7.7198C30.4942 7.7198 30.5495 7.51596 30.8199 7.48367C31.0347 7.45794 31.3176 7.44718 31.5029 7.41677C31.6808 7.38744 32.99 6.88353 32.99 7.2463L32.9111 7.99617C32.8178 8.04093 32.5943 8.08725 32.4768 8.11454C32.4768 8.53954 32.4429 10.4315 32.5617 10.7555C32.676 11.0675 32.5976 10.6489 32.7269 10.9404C32.8064 11.1195 32.7532 14.5739 32.7532 15.0214C33.2294 15.2498 33.0116 15.175 33.0857 15.6756C33.1297 15.973 33.1085 16.3227 33.1085 16.6395C32.9033 16.5309 32.7188 16.4372 32.5185 16.3216L30.7722 15.2658C30.5321 15.1146 28.5291 13.8373 28.4511 13.8373C28.2353 13.8373 27.7923 14.1007 27.6295 14.1996L25.4197 15.5418C25.1505 15.7035 22.6892 17.1735 22.5311 17.3893H23.3204V18.2181H21.5443C21.5443 18.0183 21.5175 18.0151 21.5049 17.8628C21.7298 17.8628 21.9478 17.7883 22.1364 17.7445C22.1398 17.5893 22.1256 17.6518 22.1758 17.5472L21.506 17.4603C21.5393 17.0456 22.4254 17.4665 22.7678 16.9551C22.1147 16.5178 21.3773 17.13 21.3076 15.9291C21.2628 15.1603 21.0708 14.4048 21.0708 13.6398C21.3065 13.5849 21.4829 13.5892 21.505 13.3242C21.3637 13.2864 21.4465 13.2894 21.3179 13.2351C21.2366 13.2008 21.1527 13.1854 21.0708 13.1663C21.0792 13.1609 21.0941 13.1464 21.0989 13.155C21.1037 13.1637 21.1207 13.1462 21.1276 13.1442L21.6413 13.0659C21.8541 13.0224 21.9618 12.9539 22.0574 12.8111C21.8729 12.4623 21.3827 12.4654 20.9524 12.4558C20.8768 12.1311 20.5947 9.23217 20.5591 8.70502C20.5448 8.49166 20.5182 8.38093 20.5182 8.15385C20.8434 8.15385 20.9174 8.09302 21.0314 7.87764C20.8079 7.8179 20.7606 7.72698 20.4393 7.7198C20.4393 7.14851 21.1243 7.77704 21.4261 7.20668C21.1588 6.80757 20.1835 6.93047 19.7289 6.93047L19.7294 5.11444C19.7311 4.82014 19.6873 4.69927 19.6888 4.40512C19.6916 3.92179 19.6785 3.48494 19.5709 3.02314C19.2631 3.09488 19.3728 3.33132 19.3736 3.931L19.2969 6.65676C19.3025 7.06803 19.4054 6.93063 18.3869 6.93063C18.0649 6.93063 17.7059 6.98834 17.637 7.2463C17.9087 7.65211 18.6236 7.25222 18.6236 7.64104C18.6236 7.87405 18.315 7.7276 18.0316 7.91725C18.1841 8.14511 18.288 8.12453 18.5841 8.19362C18.5841 8.52629 18.4982 8.91229 18.4692 9.26259C18.4121 9.95116 18.1501 12.0225 18.1501 12.4955C17.8415 12.4955 17.0844 12.4455 17.0844 12.8508C17.0844 13.0868 17.841 13.1272 18.0316 13.1272L17.7741 13.2643C17.6534 13.3318 17.6534 13.3767 17.5975 13.4823C17.6919 13.5322 17.8787 13.6138 17.9923 13.6402C17.9923 14.3775 17.8128 15.1184 17.7546 15.8495C17.6791 16.8 17.1404 16.5471 16.5211 16.7867C16.4113 16.8291 16.418 16.848 16.2952 16.8765C16.4398 17.4974 17.5209 17.0214 17.5582 17.4686C17.3324 17.4736 17.1421 17.5475 16.8873 17.5475C16.9036 17.7443 16.9308 17.7332 17.0863 17.7827C17.1994 17.8187 17.3407 17.86 17.4793 17.8632C17.3251 18.5252 16.7555 18.2949 16.2163 18.2974C15.9559 18.2985 15.8234 18.2744 15.6243 18.2579V14.2716H12.7432C12.7432 13.64 12.9051 13.5968 12.2697 13.6005L6.03366 13.6402C6.03366 13.8505 6.02711 14.0742 6.07312 14.2716L4.17895 14.223C3.87076 14.2228 3.67394 14.2668 3.42954 14.2724C2.80585 14.2868 2.75781 14.1179 2.75781 15.9688C2.75781 17.6782 2.83673 19.3693 2.83673 21.0601C3.08705 21.0018 3.33737 20.8673 3.58208 20.7792L5.51602 20.1477C5.64344 20.1114 5.87582 20.1023 5.87582 19.9549V16.9553C5.87582 16.8193 5.84666 16.8025 5.83636 16.6791H12.9405V19.0471C12.9405 19.2525 13.6757 19.1474 14.0169 19.1941L15.2015 19.2726C15.3426 19.2908 15.6633 19.3258 15.7656 19.3099C15.8322 19.2994 15.9903 19.2595 16.029 19.2543L16.8866 19.2451C17.0998 19.2653 17.1852 19.3436 17.2031 19.5602C17.7925 19.6976 18.4154 19.8386 18.9842 20.0287C19.1503 20.0842 19.3836 20.1875 19.5712 20.1917V19.9153C19.5712 19.6684 20.3361 19.7506 20.4254 18.9526C20.4841 18.4288 19.9728 18.0208 19.3738 18.0208C18.785 18.0208 18.7947 18.3778 18.5055 18.455C18.3922 18.2531 18.6175 18.1224 18.7949 18.0339C18.9608 17.9513 19.036 17.8655 19.216 17.8235V8.7855H19.3343V17.8235C19.4546 17.8209 19.4783 17.8058 19.5711 17.7841C19.5711 17.2508 19.5316 16.8606 19.5316 16.3238V9.10116C19.5316 8.91978 19.5482 8.82324 19.6895 8.7855C19.6895 9.39718 19.6456 17.392 19.691 17.7036C19.7361 18.0132 20.2954 17.9472 20.5212 18.6101C20.558 18.7181 20.5435 18.8103 20.6761 18.8103H23.3204V18.9682H20.755C20.5321 18.9682 20.4599 19.4838 20.3224 19.6012C20.0385 19.8437 19.7288 19.8362 19.7288 20.1917C19.7288 20.3601 20.2614 20.5108 20.4111 20.5749C20.9147 20.7906 21.3528 21.0598 21.8187 21.338C21.9334 21.4066 22.0287 21.4751 22.1521 21.5571C22.2591 21.6283 22.3853 21.742 22.4915 21.7703C22.3029 21.3773 22.0967 20.1644 22.0967 19.6786C22.0967 19.0425 23.0299 19.284 23.3992 19.284V22.4809C23.3992 22.616 23.7295 22.856 23.8217 22.9661C23.9781 23.1531 24.1012 23.2905 24.2553 23.4798L24.8325 24.284C24.8868 24.3785 24.9443 24.5332 25.0569 24.5332C26.9882 24.5332 26.7546 24.7193 26.7541 23.9412V21.7705C26.7541 21.1323 26.7048 20.9277 26.948 20.5041C27.1368 20.175 27.4394 20.0384 27.7407 19.8366C27.7407 19.2086 27.4715 17.9815 28.5301 17.9815C28.8253 17.9815 29.0491 18.3543 29.1066 18.6285L29.1615 19.7971H30.5429C30.5429 19.2077 30.3461 17.9817 31.2533 17.9817C31.5765 17.9817 31.7811 18.1815 31.8611 18.4789C31.9029 18.6341 31.9137 18.7944 31.9261 18.9675C32.0019 20.0201 31.5373 19.7973 33.1873 19.7973C33.1873 19.1291 33.2267 18.6026 33.2267 17.9422C33.2549 17.9828 33.234 17.9455 33.2701 18.0174C33.4627 18.4014 33.3855 18.9051 33.3838 19.3245C33.3828 19.5508 33.4203 19.6248 33.4242 19.7973H36.4631C36.4631 19.2107 36.2733 17.7621 36.0844 17.2159C35.9104 16.7123 35.7132 16.4373 35.7132 15.811C35.7132 15.3983 35.6739 14.9303 35.7775 14.5334C35.8333 14.3194 35.9107 14.1491 35.9107 13.9165C35.9107 13.2849 35.75 12.7716 35.7527 12.1011C35.7543 11.7288 35.7092 11.4843 35.7115 11.1529L35.7134 8.1147C35.6036 8.05668 35.5354 8.0283 35.3977 7.99632C35.3977 7.76877 35.3249 7.54684 35.4514 7.33956C35.5376 7.19811 35.7299 7.08285 35.8319 6.93063C35.6928 6.66783 35.5804 6.34561 35.5187 6.05973C35.4925 5.93824 35.484 5.80442 35.4373 5.7071C35.6091 5.711 36.3056 5.7985 36.3056 6.02277C36.3056 6.86793 36.0468 6.6945 36.1478 7.12792C36.3284 7.11279 36.3759 7.04947 36.4492 6.91628C36.6772 6.50173 36.6214 5.97348 36.6214 5.50981C36.9271 5.48439 37.2134 5.35026 37.2134 6.33859C37.2134 6.4905 37.1539 6.47506 37.2145 6.61106C37.2638 6.72195 37.3211 6.74254 37.4504 6.77264C37.7153 6.27169 37.2042 4.96082 37.1289 4.88377C37.0539 4.8072 37.0427 4.81141 36.921 4.776L36.7005 4.68087H37.1741C37.28 4.48061 37.6873 3.93053 37.6873 3.69409C37.6873 3.36189 37.4042 2.90258 37.1921 2.76845C36.9436 2.61124 36.4196 2.51017 36.0297 2.51017C35.9015 2.51017 35.9473 2.54012 35.9087 2.6259C35.908 2.62746 35.8835 2.70794 35.8804 2.7162C35.8564 2.78186 35.858 2.77734 35.8322 2.82584H35.2402C35.2104 2.95358 35.1731 2.99896 35.1613 3.14151C34.5909 2.8678 34.806 2.88838 34.806 1.9969C34.806 1.3548 34.5182 1.25405 34.1745 1.0892C34.1857 0.5884 34.3228 0.561886 33.8194 0.181337C33.4555 -0.0937815 33.6307 -0.000671692 33.1879 0.10242L33.1874 0.102576Z" fill="#EBEBEB"/>
<path fill-rule="evenodd" clip-rule="evenodd" d="M43.6907 22.7966C43.3859 22.7257 43.4383 22.4417 43.4527 21.9666L43.4934 19.7972C43.7488 19.7972 43.7357 19.7947 43.7336 20.0701L43.7289 21.2983C43.7412 21.71 43.8092 21.3627 43.7359 22.0131L43.6907 22.7966ZM43.5328 16.7975H43.6907C43.6907 17.0978 43.7685 17.3368 43.7705 17.9035C43.7715 18.156 43.7314 18.2257 43.7286 18.4535C43.7261 18.663 43.7301 18.8765 43.7301 19.0866C43.4196 19.0866 43.4902 19.0225 43.4934 18.5735C43.4977 17.9345 43.4223 18.2821 43.491 17.3872C43.499 17.2838 43.4881 17.1845 43.4993 17.0797C43.5121 16.9586 43.5328 16.9666 43.5328 16.7975ZM43.4934 14.903H43.6907C43.6907 15.1534 43.7301 15.2326 43.7301 15.4951V16.166H43.4934V14.903ZM55.7678 15.5345C55.8779 15.0617 56.3605 14.875 56.5797 15.5119C56.6563 15.7343 56.6755 16.001 56.6755 16.2844C56.5007 16.1674 55.8434 15.6476 55.7678 15.5345ZM38.0468 15.2978V15.14C38.0468 14.9224 38.0751 14.8416 38.2836 14.8241V15.3767C38.18 15.4009 38.0468 15.4701 38.0468 15.2978ZM39.6649 14.5874C39.8647 14.5874 39.868 14.6142 40.0202 14.6268C40.0394 14.8567 40.0992 15.0245 40.0992 15.2978H39.7046L39.6651 14.5874H39.6649ZM40.6121 12.772C40.6121 12.9817 40.6692 12.9644 40.6121 13.0876C40.5168 13.0178 40.4671 12.9254 40.4543 12.772H40.6121ZM39.507 12.4167C39.6765 12.4619 39.6635 12.5181 39.7043 12.6929C39.5207 12.6776 39.511 12.6045 39.507 12.4167ZM39.4675 11.3905L39.507 12.4167L39.4675 11.3905ZM39.428 10.3642H39.507L39.5915 10.6387C39.3262 10.5799 39.428 10.5546 39.428 10.3642ZM43.4143 9.89056C43.4143 9.45526 43.3937 9.4498 43.4932 9.02231H43.651C43.7384 9.39693 43.6905 10.5021 43.6905 10.9562C43.6905 11.0472 43.6631 11.0746 43.5721 11.0746C43.3466 11.0746 43.4662 10.7778 43.4547 10.5624C43.443 10.341 43.4143 10.1724 43.4143 9.89056ZM40.5727 11.7456C40.5489 11.4606 40.3836 11.0143 40.2854 10.7699C40.2542 10.6924 40.1317 10.352 40.1052 10.3185C40.0035 10.1903 39.8064 10.2457 39.7835 9.96932C39.8735 9.94842 39.8743 9.93875 39.9808 9.92986C39.892 9.74489 39.7995 9.49082 39.7311 9.27185C39.623 8.92608 39.497 9.13913 39.3098 8.7854C39.4301 8.78805 39.4536 8.80318 39.5466 8.82486C39.4862 8.56596 39.3426 8.16779 39.2307 7.95662C38.9073 8.04302 38.855 8.63942 38.7716 8.91828L37.9339 11.6327C37.7212 12.3412 37.5643 11.7431 37.4428 12.6018C37.4169 12.7852 37.391 13.0012 37.359 13.2286C37.318 13.5211 37.2165 14.5567 37.1229 14.7686C37.0752 14.877 37.0406 14.8779 36.9471 14.948C36.4733 15.3034 36.512 16.115 36.9415 16.4026C36.8533 16.7816 36.8294 17.5511 36.7803 17.978C36.767 18.0939 36.675 18.6876 36.6935 18.7234C36.755 18.8406 37.3684 18.7708 37.5334 18.7708C37.5955 18.5044 37.6268 18.0476 37.6529 17.7458C37.6987 17.2152 37.8115 16.6536 37.8101 16.1269C37.8095 15.8731 37.8463 15.8042 37.8494 15.5742C37.8545 15.1881 37.8751 14.8152 38.2438 14.7845L38.1624 18.3743C38.113 18.9107 37.9007 18.7708 39.9408 18.7708C39.9408 18.5452 39.9173 18.4648 39.9036 18.2951L39.7041 14.7845C39.8134 14.8369 40.0976 14.8798 40.174 14.9461C40.2235 14.9888 40.1927 14.9216 40.2348 15.0431L40.9031 19.1109C40.9566 19.3835 41.1542 19.5004 41.2363 19.7646C41.3957 20.2789 41.2948 21.0277 41.3256 21.6116C41.3352 21.7913 41.3376 21.6941 41.3283 21.8548C41.2962 22.4025 41.3224 22.9584 41.3224 23.5069H44.2035C44.2035 22.3994 44.5806 22.1444 45.3713 21.5963C45.5837 21.4491 45.7742 21.3315 45.9961 21.1951L46.4693 20.9184C46.709 20.7871 46.6304 20.6426 46.6975 20.3572L47.0401 19.1605C47.1236 18.9283 47.2287 18.6543 47.3344 18.4286C47.658 17.7381 48.0099 17.0907 48.4598 16.4756C48.8097 15.9973 49.2183 15.5016 49.7125 15.1629C50.26 14.7876 50.8378 14.4057 51.5445 14.3899C52.0044 15.259 52.2352 16.448 52.3622 17.4794L52.4522 18.7313C52.759 18.6599 53.1043 18.5961 53.4106 18.5452C53.5941 18.5147 54.3345 18.4199 54.4256 18.3762C54.5022 18.299 53.9642 16.3424 53.9472 16.2891L53.2021 14.3899C53.8456 14.7304 54.3072 15.1911 54.5834 15.3371L54.5831 17.9423C54.5766 18.6728 54.6979 18.2577 55.6097 18.2577V16.4815C55.7613 16.5219 55.6971 16.5051 55.7865 16.6205C56.0802 16.9997 56.5585 17.723 56.5964 18.1787C56.9948 18.1787 57.236 18.1383 57.6225 18.1393C57.9909 18.1401 58.3593 18.1393 58.7277 18.1393C58.6553 17.8286 58.4107 17.4987 58.2518 17.2338C57.756 16.4065 57.5258 16.1974 57.8106 15.1306C58.0266 14.3219 58.9363 14.0064 59.1948 14.9489C59.3269 15.431 59.3119 17.0574 59.2802 17.6265C59.2484 18.1987 59.0555 18.1787 60.0694 18.1787L60.0693 16.1657C60.0683 15.8929 60.1043 15.754 60.1101 15.5355C60.1295 14.7901 60.2514 13.8656 61.175 13.8729C61.8349 13.8781 61.9697 14.5655 61.9645 15.0996C61.9619 15.379 62.002 15.4926 62.0049 15.7301L61.9625 17.0327C61.9617 17.5242 62.0034 17.8755 62.0034 18.376C62.3448 18.3837 62.7043 18.5267 63.0294 18.5339C63.0294 18.0647 63.0765 17.2352 63.0127 16.8139C62.8986 16.06 62.9075 14.3319 63.3605 13.7343C63.6368 13.3699 64.0992 13.1397 64.593 13.2197C65.7323 13.4041 65.5158 14.92 65.5158 15.8106C65.5158 16.427 65.4763 16.9002 65.4763 17.5078C65.4763 18.0998 65.4763 18.6919 65.4763 19.2839C65.6075 19.3533 65.7115 19.3868 65.858 19.4547C66.4941 19.7494 67.0817 20.1064 67.6629 20.4915L68.318 20.9811V11.7061C68.1654 11.6935 67.8527 11.5973 67.721 11.5533C66.912 11.2831 66.7661 11.1322 65.8714 11.3513C64.6187 11.6581 63.3587 11.8841 62.1049 12.1631L59.5657 12.7024C59.0472 12.8122 58.8401 12.9613 58.3326 12.6929C58.5815 11.6242 57.5767 10.7006 56.5652 10.8466C56.3726 10.8744 56.0624 11.0015 55.9337 11.123C55.4841 11.5472 55.5077 11.8262 55.2294 12.3131C55.1015 12.5368 54.8484 12.534 54.6226 12.6534C54.6226 12.864 54.6219 13.0745 54.6227 13.2851C54.6238 13.5502 54.5831 13.7116 54.5831 13.9164L53.5188 13.5204C53.116 13.2976 53.1649 13.0681 52.56 12.9796C51.6655 12.8485 51.4369 12.9998 50.7102 13.2799C50.5114 13.3567 50.3188 13.3869 50.1149 13.4347C48.6523 13.7768 47.3067 14.5345 46.3344 15.6531C46.3344 13.2667 46.2949 10.9909 46.2949 8.62788C46.1528 8.53274 46.0036 8.44728 45.8607 8.35151C45.8607 7.85306 45.9298 7.8384 45.6547 7.57076C45.0112 6.94457 44.1061 7.16744 43.0584 7.16744V7.99623L42.7031 8.15406V11.0352C42.6175 11.0551 42.4618 11.118 42.3874 11.1535V12.4165H42.7427C42.9438 12.0366 43.0517 11.6133 43.6501 11.6238C44.4196 11.637 44.7907 12.5344 44.2735 13.0396C43.9672 13.3389 43.4146 13.4309 43.0746 13.1107C43.0049 13.0451 42.7942 12.6717 42.7427 12.5744H42.3874V13.6401C42.4618 13.6758 42.6176 13.7385 42.7031 13.7584C42.7031 14.758 42.7083 15.759 42.7026 16.7585C42.7009 17.0527 42.7447 17.1737 42.7432 17.4679C42.7391 18.1759 42.8115 19.0446 42.6638 19.6786H42.4665C42.3193 19.3718 42.1722 18.0301 42.1002 17.5981L41.286 12.6104C41.2294 12.2798 40.9507 12.4328 40.794 12.1551C40.7171 12.019 40.6718 11.8604 40.572 11.7456H40.5727Z" fill="#EBEBEB"/>
<path fill-rule="evenodd" clip-rule="evenodd" d="M28.2148 27.2953C28.3898 27.342 28.7052 27.6254 28.8136 27.7622C29.3445 28.4316 29.3595 29.5601 29.3595 30.4922V35.1099H39.7789C39.8698 35.1099 39.8972 35.0825 39.8972 34.9916V21.2568H28.2148V27.2954V27.2953Z" fill="#EAA700"/>
<path fill-rule="evenodd" clip-rule="evenodd" d="M0 51.9633C0 52.1355 0.912383 52.7301 1.04168 52.8161C1.43049 53.0744 1.83194 53.3356 2.24992 53.5418C2.71828 53.7728 2.98497 53.9487 3.55205 54.1736C4.0162 54.3578 4.46257 54.5367 4.96789 54.6917C7.63048 55.5082 9.74784 55.6733 12.827 55.6733V48.2928C10.3887 48.8609 10.2945 46.336 10.3012 44.5433C10.3024 44.191 10.2608 43.9953 10.2616 43.6358C10.2622 43.3201 10.2616 43.0043 10.2616 42.6885H0V51.9634V51.9633Z" fill="#EAA700"/>
<path fill-rule="evenodd" clip-rule="evenodd" d="M57.707 47.9762C57.707 48.9539 57.7465 49.7989 57.7465 50.7784V55.0014H69.942V44.5029C69.942 44.412 69.9146 44.3845 69.8236 44.3845H60.0357C60.0357 45.0907 59.958 45.7066 59.7771 46.3362C59.7147 46.5533 59.5466 46.9147 59.4142 47.0785C58.7955 47.8438 58.0739 47.782 57.707 47.9762Z" fill="#EAA700"/>
<path fill-rule="evenodd" clip-rule="evenodd" d="M10.9347 18.573C10.9347 18.4664 10.9536 18.4642 10.9742 18.3757H11.7635V18.8889H10.9347V18.5732V18.573ZM9.98754 18.3757H10.7769C10.7809 18.5542 10.8163 18.5326 10.8163 18.731V18.8889H9.98754V18.3757ZM9.04038 18.3757H9.82971V18.8889H9.04038V18.3757ZM8.0536 18.4152L8.88239 18.3757V18.9283L8.0536 18.8889V18.4152ZM7.89577 18.8889H7.10644V18.3757H7.81685C8.02849 18.3757 7.89577 18.6855 7.89577 18.8889ZM10.9347 17.468H11.7635V18.2179H10.9347V17.468ZM9.98754 17.468H10.8163V18.2179H9.98754V17.468ZM9.04038 17.468H9.82971V18.2179H9.04038V17.468ZM8.0536 17.468H8.88239V18.2179H8.0536V17.468ZM7.89577 17.7444V18.1786L7.10644 18.2181V17.4682H7.93523C7.92494 17.5916 7.89577 17.6084 7.89577 17.7446V17.7444ZM6.2775 17.9417C6.2775 18.6601 6.31696 19.2387 6.31696 19.9546C6.4043 19.9126 6.62608 19.8653 6.72121 19.8457C7.17117 19.7535 7.10629 19.9209 7.10629 19.1256H7.77724C7.92805 19.1256 7.79159 19.1378 7.89561 19.0862V19.5993H8.05345V19.1256L8.84278 19.0862V19.4414C9.06861 19.4365 9.04007 19.45 9.04007 19.0862H9.8294V19.3229H9.98723C9.98723 19.0113 9.97086 19.1988 10.0267 19.0862H10.7766C10.7918 19.2696 10.7343 19.1553 10.8555 19.244C11.1239 19.1724 10.7894 19.1244 11.2073 19.1222C11.3588 19.1214 11.5281 19.1116 11.6659 19.1108L12.0372 19.1673C12.1955 19.1674 12.3546 19.1651 12.5132 19.1651V16.9944H6.27734V17.9415L6.2775 17.9417Z" fill="#EBEBEB"/>
<path fill-rule="evenodd" clip-rule="evenodd" d="M20.8004 47.1088C21.8845 47.1088 22.8355 47.1483 23.9184 47.1483C23.9184 46.7559 23.9042 46.1089 23.9471 45.7956C23.9694 45.6323 23.9564 45.4593 23.9586 45.2926C23.9645 44.836 24.0478 44.8987 23.3658 44.8987C22.9199 44.8987 22.904 44.9373 22.6945 44.9411C22.5245 44.944 22.4913 44.9178 22.3733 44.9044L20.8004 44.8987C20.8004 45.266 20.83 45.6735 20.7776 46.0205C20.7236 46.3766 20.7753 46.8067 20.8004 47.109V47.1088Z" fill="#E9A800"/>
</svg>
